<svg width="24" height="24" viewBox="0 0 24 24" fill="none" xmlns="http://www.w3.org/2000/svg">
<path d="M1 2H3.92188L6.84375 6.12371M6.84375 6.12371H23L20.25 14.0412H6.84375M6.84375 6.12371V14.0412M6.84375 14.0412V18H18.875" stroke="black" stroke-width="2" stroke-linecap="round" stroke-linejoin="round"/>
<path d="M7.5 24C8.32843 24 9 23.3284 9 22.5C9 21.6716 8.32843 21 7.5 21C6.67157 21 6 21.6716 6 22.5C6 23.3284 6.67157 24 7.5 24Z" fill="black"/>
<path d="M17.5 24C18.3284 24 19 23.3284 19 22.5C19 21.6716 18.3284 21 17.5 21C16.6716 21 16 21.6716 16 22.5C16 23.3284 16.6716 24 17.5 24Z" fill="black"/>
</svg>
