<svg width="96" height="80" viewBox="0 0 96 80" fill="none" xmlns="http://www.w3.org/2000/svg">
<rect width="96" height="80" rx="8" fill="#C4C4C4"/>
<rect x="37" y="16" width="22.6836" height="14.5823" stroke="#4D4D4D" stroke-width="2" stroke-linejoin="round"/>
<rect x="37" y="30.582" width="22.6836" height="14.5823" stroke="#4D4D4D" stroke-width="2" stroke-linejoin="round"/>
<path d="M41.8594 35.4434V38.6839" stroke="#4D4D4D" stroke-width="2" stroke-linecap="round" stroke-linejoin="round"/>
<path d="M41.8594 20.8604V24.1009" stroke="#4D4D4D" stroke-width="2" stroke-linecap="round" stroke-linejoin="round"/>
<path d="M9.906 57.194C9.416 56.578 8.338 55.696 7.47 55.094L6.756 55.808C7.638 56.452 8.674 57.376 9.164 58.006L9.906 57.194ZM7.442 65.958C8.31 64.698 9.332 63.06 10.116 61.632L9.346 60.946C8.492 62.458 7.33 64.194 6.546 65.23L7.442 65.958ZM18.334 60.946H10.62V61.926H13.252V67.05H14.274V61.926H17.326V64.502C17.326 64.67 17.27 64.726 17.06 64.726C16.85 64.74 16.206 64.74 15.422 64.712C15.562 65.006 15.702 65.412 15.744 65.72C16.738 65.72 17.41 65.706 17.816 65.552C18.236 65.37 18.334 65.062 18.334 64.53V60.946ZM11.978 58.454V59.42H16.878V58.454H11.978ZM13.84 54.366C12.986 55.99 11.138 58.006 9.22 59.154C9.416 59.378 9.682 59.77 9.808 60.022C11.74 58.804 13.476 56.928 14.4 55.388C15.408 56.914 17.284 58.678 18.936 59.714C19.118 59.392 19.37 59.028 19.58 58.762C17.886 57.866 16.01 56.102 14.862 54.366H13.84ZM24.256 63.97H25.712V64.992H24.256V63.97ZM25.712 60.4V61.366H24.256V60.4H25.712ZM27.504 63.27H24.256V62.08H27.504V63.27ZM31.41 59.63C31.116 60.834 30.724 61.94 30.192 62.906C29.926 61.828 29.702 60.484 29.59 58.874H33.188V57.978H32.068L32.628 57.516C32.306 57.152 31.662 56.648 31.102 56.354L30.486 56.816C31.004 57.138 31.592 57.614 31.928 57.978H29.534C29.52 57.684 29.506 57.376 29.492 57.054H29.828V56.06H33.132V55.178H29.828V54.296H28.792V55.178H25.166V54.296H24.13V55.178H20.882V56.06H24.13V57.124H25.166V56.06H28.792V56.774H28.512C28.526 57.18 28.54 57.586 28.568 57.978H21.764V61.436C21.764 63.018 21.638 65.09 20.518 66.56C20.756 66.672 21.162 66.938 21.33 67.106C22.52 65.552 22.702 63.186 22.702 61.45V58.874H28.638C28.806 60.932 29.1 62.654 29.506 63.97C29.184 64.418 28.82 64.838 28.428 65.202V64.992H26.496V63.97H28.274V61.366H26.496V60.4H28.33V59.672H23.444V66.49H24.256V65.776H27.756C27.476 66 27.168 66.21 26.846 66.392C27.084 66.56 27.49 66.91 27.644 67.092C28.498 66.532 29.254 65.846 29.912 65.048C30.486 66.35 31.2 67.05 32.012 67.05C32.908 67.05 33.3 66.7 33.468 64.824C33.202 64.754 32.838 64.516 32.614 64.306C32.53 65.706 32.376 66.07 32.082 66.084C31.606 66.084 31.046 65.44 30.57 64.152C31.368 62.934 31.97 61.492 32.39 59.826L31.41 59.63ZM47.23 56.438V55.514H41.938V54.296H40.874V55.514H35.694V59.868C35.694 61.856 35.596 64.586 34.49 66.504C34.714 66.602 35.148 66.91 35.316 67.092C36.506 65.062 36.674 62.01 36.674 59.868V56.438H47.23ZM38.9 62.836V61.772H41.49V62.836H38.9ZM38.9 60.036H41.49V61.086H38.9V60.036ZM45.2 60.036V61.086H42.484V60.036H45.2ZM45.2 62.836H42.484V61.772H45.2V62.836ZM47.328 64.53H42.484V63.536H46.152V59.336H42.484V58.398H46.88V57.572H42.484V56.564H41.49V57.572H37.458V58.398H41.49V59.336H37.976V63.536H41.49V64.53H36.856V65.412H41.49V67.078H42.484V65.412H47.328V64.53ZM58.248 58.734L57.534 59.042C57.954 59.616 58.36 60.344 58.682 61.016L59.396 60.68C59.102 60.064 58.57 59.196 58.248 58.734ZM59.774 58.146L59.074 58.468C59.522 59.056 59.928 59.742 60.264 60.414L60.992 60.078C60.656 59.462 60.11 58.608 59.774 58.146ZM49.162 56.788L49.288 58.02C50.786 57.712 54.566 57.348 55.784 57.208C54.51 57.964 53.208 59.728 53.208 61.884C53.208 64.978 56.134 66.35 58.696 66.462L59.102 65.286C56.848 65.202 54.328 64.348 54.328 61.646C54.328 60.008 55.518 57.894 57.492 57.264C58.206 57.054 59.41 57.04 60.208 57.04V55.92C59.284 55.962 57.982 56.032 56.47 56.158C53.922 56.382 51.304 56.634 50.394 56.718C50.128 56.746 49.694 56.774 49.162 56.788ZM66.452 62.598V60.96H67.712V62.598H66.452ZM64.436 60.96H65.696V62.598H64.408C64.436 62.22 64.436 61.842 64.436 61.506V60.96ZM66.536 56.354C66.368 56.844 66.13 57.39 65.92 57.81H64.31C64.562 57.362 64.8 56.872 65.01 56.354H66.536ZM66.452 58.636H67.712V60.176H66.452V58.636ZM64.436 58.636H65.696V60.176H64.436V58.636ZM74.082 55.878C73.998 57.502 73.872 58.146 73.718 58.328C73.62 58.454 73.508 58.468 73.326 58.454C73.13 58.454 72.612 58.454 72.066 58.398C72.192 58.636 72.276 59 72.304 59.266C72.878 59.294 73.452 59.308 73.746 59.28C74.11 59.252 74.32 59.154 74.502 58.93C74.81 58.594 74.922 57.698 75.034 55.388C75.048 55.262 75.048 54.996 75.048 54.996H69V55.878H70.89C70.624 57.194 70.064 58.3 68.594 58.944V57.81H66.844C67.166 57.208 67.488 56.494 67.726 55.878L67.11 55.486L66.956 55.528H65.318C65.43 55.192 65.542 54.842 65.64 54.492L64.674 54.282C64.254 55.99 63.484 57.642 62.49 58.706C62.714 58.846 63.12 59.168 63.274 59.336C63.372 59.224 63.47 59.098 63.568 58.972V61.506C63.568 63.074 63.47 65.146 62.532 66.616C62.742 66.714 63.134 66.938 63.274 67.092C63.932 66.084 64.226 64.712 64.352 63.41H67.712V65.93C67.712 66.112 67.642 66.168 67.446 66.182C67.264 66.196 66.634 66.196 65.906 66.168C66.046 66.406 66.2 66.812 66.242 67.05C67.208 67.05 67.768 67.036 68.118 66.882C68.482 66.728 68.594 66.434 68.594 65.93V58.958C68.79 59.126 69.042 59.434 69.154 59.658C70.876 58.874 71.548 57.53 71.842 55.878H74.082ZM75.426 63.48H72.766V61.758H75.188V60.862H72.766V59.434H71.772V60.862H70.554C70.666 60.498 70.764 60.12 70.848 59.742L69.966 59.56C69.714 60.75 69.294 61.898 68.678 62.696C68.916 62.808 69.322 63.004 69.49 63.13C69.756 62.752 70.008 62.276 70.218 61.758H71.772V63.48H68.832V64.376H71.772V66.994H72.766V64.376H75.426V63.48ZM79.654 57.376C79.22 56.732 78.254 55.85 77.442 55.22L76.728 55.892C77.54 56.536 78.492 57.474 78.898 58.118L79.654 57.376ZM79.024 60.512C78.282 62.038 77.274 63.788 76.574 64.838L77.47 65.51C78.226 64.264 79.122 62.598 79.808 61.184L79.024 60.512ZM81.656 60.582H84.064V61.828H81.656V60.582ZM81.656 58.566H84.064V59.812H81.656V58.566ZM87.578 58.566V59.812H85.086V58.566H87.578ZM87.578 61.828H85.086V60.582H87.578V61.828ZM88.558 62.64V57.768H85.086V56.592H89.188V55.654H85.086V54.282H84.064V55.654H79.976V56.592H84.064V57.768H80.704V62.64H83.252C82.258 63.998 80.648 65.244 79.122 65.874C79.346 66.084 79.654 66.448 79.822 66.7C81.39 65.972 83 64.6 84.064 63.06V67.05H85.086V63.144C86.038 64.586 87.452 65.93 88.754 66.672C88.908 66.392 89.244 66.028 89.482 65.818C88.138 65.188 86.668 63.942 85.758 62.64H88.558Z" fill="#4D4D4D"/>
</svg>
