<svg width="40" height="40" viewBox="0 0 40 40" fill="none" xmlns="http://www.w3.org/2000/svg">
<path d="M33 18.2246C33 12.581 27.164 8 20 8C12.836 8 7 12.581 7 18.2246C7 23.2779 11.6298 27.5046 17.8679 28.3075C18.2943 28.402 18.8669 28.5791 19.0131 28.9333C19.1471 29.252 19.0984 29.7479 19.0497 30.0667C19.0497 30.0667 18.8913 30.9522 18.8669 31.1411C18.806 31.4599 18.6111 32.3808 19.9878 31.8259C21.3768 31.2592 27.4686 27.5519 30.1978 24.5176C32.0984 22.5104 33 20.4797 33 18.2246ZM15.4067 21.2353C15.4067 21.3652 15.2971 21.4714 15.1631 21.4714H11.5201C11.3861 21.4714 11.2765 21.3652 11.2765 21.2353V15.7334C11.2765 15.6035 11.3861 15.4972 11.5201 15.4972H12.4461C12.5801 15.4972 12.6898 15.6035 12.6898 15.7334V20.1019H15.1631C15.2971 20.1019 15.4067 20.2081 15.4067 20.338V21.2353ZM17.612 21.2353C17.612 21.3652 17.5023 21.4714 17.3683 21.4714H16.4424C16.3083 21.4714 16.1987 21.3652 16.1987 21.2353V15.7334C16.1987 15.6035 16.3083 15.4972 16.4424 15.4972H17.3683C17.5023 15.4972 17.612 15.6035 17.612 15.7334V21.2353ZM23.8866 21.2353C23.8866 21.3652 23.7769 21.4714 23.6429 21.4714H22.717C22.6926 21.4714 22.6682 21.4714 22.656 21.4596H22.6439C22.6439 21.4596 22.6439 21.4596 22.6317 21.4596H22.6195H22.6073C22.6073 21.4596 22.6073 21.4596 22.5951 21.4596L22.5829 21.4478C22.5586 21.436 22.5342 21.4124 22.522 21.3888L19.9147 17.9767V21.2353C19.9147 21.3652 19.8051 21.4714 19.671 21.4714H18.7451C18.6111 21.4714 18.5014 21.3652 18.5014 21.2353V15.7334C18.5014 15.6035 18.6111 15.4972 18.7451 15.4972H19.6589C19.6589 15.4972 19.6589 15.4972 19.671 15.4972H19.6832H19.6954H19.7076H19.7198C19.7198 15.4972 19.7198 15.4972 19.732 15.4972H19.7441C19.7441 15.4972 19.7441 15.4972 19.7563 15.4972C19.7563 15.4972 19.7685 15.4972 19.7685 15.5091C19.7685 15.5091 19.7685 15.5091 19.7807 15.5091C19.7807 15.5091 19.7929 15.5091 19.7929 15.5209C19.7929 15.5209 19.7929 15.5209 19.8051 15.5209C19.8051 15.5209 19.8172 15.5209 19.8172 15.5327C19.8172 15.5327 19.8172 15.5327 19.8294 15.5327L19.8416 15.5445L19.8538 15.5563C19.866 15.5681 19.866 15.5681 19.8782 15.5799L22.4733 19.0038V15.7334C22.4733 15.6035 22.5829 15.4972 22.717 15.4972H23.6429C23.7769 15.4972 23.8866 15.6035 23.8866 15.7334V21.2353ZM28.9185 16.6307C28.9185 16.7606 28.8088 16.8668 28.6748 16.8668H26.1893V17.7995H28.6748C28.8088 17.7995 28.9185 17.9058 28.9185 18.0357V18.933C28.9185 19.0629 28.8088 19.1691 28.6748 19.1691H26.1893V20.1019H28.6748C28.8088 20.1019 28.9185 20.2081 28.9185 20.338V21.2353C28.9185 21.3652 28.8088 21.4714 28.6748 21.4714H25.0319C24.8978 21.4714 24.7882 21.3652 24.7882 21.2353V15.7452C24.7882 15.6153 24.8978 15.5091 25.0319 15.5091H28.6748C28.8088 15.5091 28.9185 15.6153 28.9185 15.7452V16.6307Z" fill="#CCCCCC"/>
</svg>
