<svg width="180" height="40" viewBox="0 0 180 40" fill="none" xmlns="http://www.w3.org/2000/svg">
<rect width="180" height="40" rx="4" fill="black"/>
<path d="M71.184 18.056C71.312 17.56 71.408 17.144 71.488 16.84C71.664 16.168 72.112 16.168 72.112 15.672C72.112 15.144 70.672 14.296 69.776 14.296C69.344 14.296 68.8 14.552 68.432 14.728V14.968C68.768 15.08 69.136 15.224 69.424 15.416C69.632 15.56 69.68 15.704 69.68 16.04C69.664 16.488 69.472 17.432 69.264 18.28C67.616 18.472 66.096 18.632 65.696 18.632C65.152 18.632 64.848 18.216 64.496 17.736L64.272 17.8C64.192 18.264 64.16 18.632 64.32 19.016C64.512 19.56 65.312 20.488 65.824 20.488C66.208 20.488 66.512 20.232 67.008 20.072C67.44 19.944 68.192 19.784 68.864 19.656C68.08 22.104 66.672 25.032 63.248 27.592L63.456 27.88C68.608 25.64 70.176 21.432 70.816 19.32C71.76 19.176 72.8 19.032 73.456 19.032C73.568 19.032 73.632 19.096 73.632 19.24C73.632 20.264 73.056 23.576 72.144 24.776C71.952 25.032 71.792 25.096 71.376 25.048C70.992 25.016 70.208 24.808 69.28 24.472L69.136 24.712C70.144 25.608 70.512 25.96 70.656 26.504C70.8 27.032 70.928 27.24 71.44 27.24C72.384 27.24 73.344 26.392 73.808 25.496C74.672 23.752 75.12 21.4 75.328 19.976C75.408 19.368 76 19.368 76 18.936C76 18.408 74.608 17.32 74.112 17.32C73.776 17.32 73.536 17.784 73.088 17.832L71.184 18.056ZM79.36 19.72C79.312 20.104 79.264 20.568 79.408 20.936C79.696 21.72 80.688 22.76 81.312 22.76C81.92 22.76 82.16 22.376 83.312 22.264C84.544 22.12 88.128 21.896 89.344 21.896C90.464 21.896 91.024 21.944 91.664 21.944C92.336 21.944 92.72 21.72 92.72 21.256C92.72 20.568 91.888 20.072 90.928 20.072C90.544 20.072 89.824 20.2 88.752 20.296C87.776 20.376 82.944 20.696 81.232 20.696C80.384 20.696 80.112 20.264 79.632 19.624L79.36 19.72ZM98.624 15.08C99.28 15.192 99.776 15.368 99.872 15.896C100 16.616 100.048 18.632 100.048 19.96C100.048 20.92 100.032 23.064 99.904 24.264C99.824 24.968 99.68 25.336 99.68 25.768C99.68 26.952 100.128 27.816 100.96 27.816C101.6 27.816 101.776 27.48 101.776 26.648C101.776 26.424 101.744 25.88 101.712 25.064C101.664 23.688 101.648 21.64 101.696 19.944C102.544 20.344 103.12 20.728 103.616 21.144C104.848 22.28 104.912 23.16 105.936 23.16C106.512 23.16 106.864 22.696 106.864 22.184C106.864 21.336 106.4 20.856 105.696 20.44C104.8 19.912 103.312 19.48 101.712 19.304C101.728 18.376 101.76 17.512 101.856 16.888C101.936 16.296 102.288 16.136 102.288 15.672C102.288 15.144 100.864 14.36 100.064 14.36C99.584 14.36 99.056 14.616 98.608 14.824L98.624 15.08ZM115.2 20.952C114.784 21.752 113.968 23.288 113.568 23.864C113.408 24.104 113.264 24.088 113.168 23.848C113.072 23.656 112.992 23.336 112.992 22.84C112.992 21.48 113.6 20.008 114.208 18.952C114.592 18.216 114.816 17.896 114.816 17.448C114.816 16.568 113.952 15.688 113.456 15.368C113.072 15.112 112.72 14.968 112.192 14.84L112.032 15.016C112.448 15.48 112.864 16.168 112.864 16.904C112.848 17.608 112.688 18.264 112.496 19.032C112.24 19.992 111.792 21.672 111.792 23.144C111.792 24.936 112.176 26.184 112.768 26.984C113.088 27.416 113.472 27.704 113.856 27.704C114.384 27.704 114.672 27.368 114.672 26.792C114.672 26.312 114.32 25.768 114.32 25.192C114.32 24.936 114.4 24.6 114.528 23.96C114.672 23.368 115.232 21.976 115.552 21.112L115.2 20.952ZM116.768 22.36C116.736 22.744 116.72 23.224 116.784 23.704C117.024 25.56 118.272 26.856 121.296 26.856C123.232 26.856 124.848 26.648 124.848 25.656C124.848 25.048 124.128 24.744 123.44 24.744C123.104 24.744 122.448 25.048 120.832 25.048C118.832 25.048 118.08 24.632 117.456 23.528C117.264 23.192 117.136 22.712 117.04 22.328L116.768 22.36ZM117.28 18.072C118.624 17.704 119.392 17.656 119.872 17.656C121.04 17.656 120.96 17.816 120.8 18.008C120.528 18.312 119.728 18.984 119.024 19.576L119.232 19.816C120.096 19.288 121.152 18.792 121.872 18.552C122.528 18.36 123.104 18.344 123.584 18.264C123.984 18.184 124.192 17.992 124.192 17.592C124.192 17.304 124.064 16.984 123.568 16.712C123.024 16.424 122.368 16.296 121.296 16.296C120.096 16.296 118.384 16.696 117.168 17.8L117.28 18.072ZM138.08 16.184V18.76H133.888V16.184H138.08ZM138.448 21.416V24.136H133.888V21.416H138.448ZM133.888 24.6H138.448V25.544H138.768C139.36 25.544 140.272 25.224 140.288 25.128V21.736C140.608 21.656 140.832 21.528 140.944 21.4L139.136 20.056L138.288 20.984H133.888V19.224H138.08V19.864H138.4C138.976 19.864 139.92 19.544 139.936 19.448V16.488C140.24 16.424 140.48 16.28 140.576 16.152L138.784 14.792L137.92 15.72H135.6C136.064 15.272 136.688 14.616 137.072 14.168C137.424 14.136 137.648 14.008 137.696 13.736L134.88 13.336C134.832 14.04 134.752 15.064 134.688 15.72H133.968L132.064 14.936V25.912H132.352C133.152 25.912 133.888 25.48 133.888 25.272V24.6ZM127.216 13.992C127.904 14.76 128.624 15.944 128.816 16.984C130.608 18.248 132.144 14.712 127.344 13.896L127.216 13.992ZM130.336 21.08C130.784 21.016 131.024 20.904 131.152 20.76L129.216 19.208L128.32 20.392H126.496L126.592 20.856H128.576V25.544C127.792 25.864 127.008 26.152 126.464 26.328L127.488 28.424C127.648 28.344 127.744 28.248 127.744 28.024C128.4 27.384 129.456 26.216 130.144 25.32C131.232 27.576 132.432 28.04 135.488 28.04H140.432C140.512 27.192 140.928 26.632 141.664 26.456V26.264C139.696 26.328 137.248 26.328 135.456 26.328C132.528 26.328 131.44 26.184 130.336 25.064V21.08ZM147.984 16.952H146.656C146.688 16.024 146.688 15.096 146.704 14.2C147.104 14.136 147.248 13.992 147.296 13.752L144.816 13.528C144.816 14.664 144.832 15.8 144.816 16.952H142.672L142.816 17.4H144.8C144.736 21.176 144.336 24.952 142.256 28.2L142.48 28.424C145.856 25.416 146.48 21.384 146.64 17.4H148.144C148.032 22.728 147.856 25.384 147.312 25.896C147.152 26.024 147.024 26.088 146.752 26.088C146.432 26.088 145.6 26.024 145.088 25.976L145.072 26.2C145.696 26.344 146.128 26.552 146.368 26.856C146.576 27.096 146.624 27.544 146.624 28.152C147.488 28.152 148.192 27.912 148.736 27.352C149.6 26.456 149.824 24.136 149.952 17.72C150.32 17.656 150.528 17.544 150.64 17.4L148.96 15.944L147.984 16.952ZM152.912 25.72V16.584H154.864V25.72H152.912ZM155.616 15.112L154.704 16.136H152.976L151.088 15.32V28.088H151.408C152.192 28.088 152.912 27.656 152.912 27.432V26.184H154.864V27.8H155.168C155.888 27.8 156.736 27.304 156.768 27.128V16.92C157.088 16.84 157.312 16.712 157.424 16.568L155.616 15.112Z" fill="white"/>
<path d="M23 10H25.9219L28.8438 14.1237M28.8438 14.1237H45L42.25 22.0412H28.8438M28.8438 14.1237V22.0412M28.8438 22.0412V26H40.875" stroke="white" stroke-width="2" stroke-linecap="round" stroke-linejoin="round"/>
<path d="M29.5 32C30.3284 32 31 31.3284 31 30.5C31 29.6716 30.3284 29 29.5 29C28.6716 29 28 29.6716 28 30.5C28 31.3284 28.6716 32 29.5 32Z" fill="white"/>
<path d="M39.5 32C40.3284 32 41 31.3284 41 30.5C41 29.6716 40.3284 29 39.5 29C38.6716 29 38 29.6716 38 30.5C38 31.3284 38.6716 32 39.5 32Z" fill="white"/>
</svg>
