<svg width="32" height="32" viewBox="0 0 32 32" fill="none" xmlns="http://www.w3.org/2000/svg">
<path d="M15.5832 7.95162L16.0063 8.61686L16.4277 7.95053C17.2273 6.68602 18.6895 5.5008 21.4564 5.5C24.8122 5.50119 27.5 8.11917 27.5 11.3116C27.5 15.3913 24.6383 19.1868 21.6558 22.0175C20.1775 23.4205 18.6971 24.5606 17.5855 25.3502C17.0301 25.7446 16.5679 26.0508 16.2455 26.2578C16.1513 26.3183 16.069 26.3703 15.9999 26.4135C15.9308 26.3703 15.8486 26.3184 15.7544 26.2579C15.432 26.0511 14.9698 25.7451 14.4144 25.3508C13.3028 24.5616 11.8224 23.422 10.3442 22.0193C7.36178 19.1893 4.5 15.3938 4.5 11.3116C4.5 8.11845 7.18898 5.5 10.5459 5.5C13.3143 5.5 14.7779 6.68543 15.5832 7.95162Z" fill="#DC3333" stroke="#DC3333"/>
</svg>
