<svg width="40" height="40" viewBox="0 0 40 40" fill="none" xmlns="http://www.w3.org/2000/svg">
<rect width="40" height="40" fill="black"/>
<path d="M15.1673 31C24.9784 31 30.3469 22.9183 30.3469 15.9218C30.3469 15.6944 30.3469 15.467 30.3365 15.2397C31.377 14.4956 32.2821 13.5551 33 12.4906C32.0428 12.9144 31.0128 13.1934 29.9308 13.3278C31.0336 12.6767 31.8764 11.6329 32.2821 10.3927C31.2521 11.0025 30.1076 11.4365 28.8904 11.6742C27.9124 10.6407 26.5286 10 24.9992 10C22.0548 10 19.6619 12.377 19.6619 15.3017C19.6619 15.7151 19.7139 16.1181 19.7971 16.5108C15.3649 16.2938 11.4322 14.1752 8.79992 10.9715C8.34214 11.7569 8.08203 12.6663 8.08203 13.6378C8.08203 15.4774 9.02881 17.0999 10.4542 18.0507C9.58023 18.0197 8.7583 17.782 8.04042 17.3893C8.04042 17.4099 8.04042 17.4306 8.04042 17.4616C8.04042 20.0246 9.88195 22.1742 12.3165 22.6599C11.8691 22.784 11.401 22.846 10.912 22.846C10.5686 22.846 10.2357 22.815 9.91317 22.753C10.5894 24.8612 12.5662 26.3907 14.8968 26.4321C13.0656 27.8583 10.7663 28.7057 8.26931 28.7057C7.84274 28.7057 7.41617 28.685 7 28.6334C9.35134 30.1216 12.1605 31 15.1673 31Z" fill="#CCCCCC"/>
</svg>
