<svg width="106" height="20" viewBox="0 0 106 20" fill="none" xmlns="http://www.w3.org/2000/svg">
<rect width="106" height="20" rx="4" fill="#C4C4C4"/>
<path d="M34.0372 5.424H32.9812C33.0172 5.616 33.0412 6.036 33.0412 6.264C33.0412 6.756 32.9932 8.712 32.9932 10.092C32.9932 11.424 33.0532 13.092 33.0532 13.788C33.0532 14.184 32.8972 14.376 32.6212 14.376C32.1532 14.376 31.3132 13.896 31.3132 13.356C31.3132 12.744 32.2372 11.94 33.4132 11.484C34.4332 11.076 35.4172 10.848 36.4972 10.848C37.6252 10.848 38.5492 11.388 38.5492 12.408C38.5492 13.524 37.5892 14.088 36.5452 14.292C36.0892 14.388 35.5852 14.376 35.1292 14.376L35.4652 15.336C35.8852 15.312 36.4252 15.288 36.9532 15.168C38.6092 14.784 39.5212 13.86 39.5212 12.408C39.5212 10.968 38.2612 10.02 36.4972 10.02C35.5492 10.02 34.3492 10.236 33.2812 10.656C31.7932 11.22 30.3652 12.336 30.3652 13.392C30.3652 14.472 31.9252 15.384 32.8612 15.384C33.5212 15.384 33.9292 15.024 33.9292 13.92C33.9292 13.164 33.8692 11.292 33.8692 10.044C33.8692 8.796 33.9292 6.96 33.9652 6.252C33.9772 5.964 34.0012 5.64 34.0372 5.424ZM37.7692 6.756L37.3252 7.476C38.0932 7.884 39.4372 8.712 40.0252 9.264L40.5052 8.496C39.9292 8.016 38.6212 7.2 37.7692 6.756ZM30.5692 7.572L30.5932 8.496C30.9892 8.532 31.4452 8.556 32.1172 8.556C33.1972 8.556 35.1652 8.292 36.4012 7.992L36.3772 7.056C35.1892 7.416 33.2812 7.668 32.0932 7.668C31.6612 7.668 31.2292 7.656 30.5692 7.572ZM48.0532 13.812V14.664H51.6052V13.812H48.0532ZM47.6812 5.964V15.624H48.5452V6.816H51.1012V15.492H52.0012V5.964H47.6812ZM44.1292 6.948V9.348C44.1292 11.208 43.8532 13.596 41.5132 15.264C41.7052 15.396 42.0292 15.744 42.1492 15.936C44.6332 14.16 45.0412 11.4 45.0412 9.36V6.948H44.1292ZM42.8932 6.54V7.38H46.9372V6.54H42.8932ZM41.6452 9.768V10.632H47.2972V9.768H41.6452ZM44.7532 11.352L44.2012 11.868C44.7532 12.456 46.1332 14.1 46.6372 14.832L47.2492 14.076C46.8652 13.62 45.2212 11.772 44.7532 11.352ZM43.0012 4.92C42.7132 6.384 42.2212 7.824 41.5012 8.748C41.7052 8.868 42.0892 9.12 42.2452 9.264C42.9532 8.244 43.5292 6.696 43.8772 5.088L43.0012 4.92ZM57.1252 5.592L56.8852 6.516C57.8092 6.756 60.4012 7.284 61.5532 7.44L61.7812 6.528C60.7132 6.42 58.1572 5.928 57.1252 5.592ZM56.8612 7.788L55.8532 7.656C55.7812 8.904 55.4812 11.424 55.2412 12.516L56.1412 12.732C56.2132 12.54 56.3212 12.348 56.5012 12.144C57.3412 11.124 58.6372 10.536 60.2092 10.536C61.4332 10.536 62.3332 11.22 62.3332 12.168C62.3332 13.812 60.4852 14.904 56.6932 14.448L56.9812 15.42C61.4332 15.792 63.3412 14.34 63.3412 12.204C63.3412 10.788 62.1172 9.684 60.2812 9.684C58.8412 9.684 57.5212 10.152 56.3692 11.16C56.4892 10.38 56.7052 8.604 56.8612 7.788ZM73.7508 5.748H72.7308C72.7668 5.964 72.8028 6.384 72.8028 6.66C72.8028 7.32 72.8028 8.16 72.7908 8.832C72.7788 9.684 72.7308 10.728 72.6588 11.184C72.6108 11.46 72.4908 11.508 72.1908 11.508C71.9148 11.508 71.4108 11.448 70.9908 11.352L70.9788 12.192C71.2908 12.252 72.1188 12.36 72.5628 12.36C73.1028 12.36 73.3788 12.204 73.4868 11.664C73.6068 11.04 73.6428 9.744 73.6668 8.82C73.6908 8.208 73.6908 7.368 73.7028 6.624C73.7028 6.36 73.7268 5.952 73.7508 5.748ZM69.0108 6.132H67.9548C68.0148 6.492 68.0268 6.78 68.0268 7.14C68.0268 7.692 68.0148 11.652 68.0388 12.66C68.0868 14.568 68.3508 15.216 71.1228 15.216C72.3468 15.216 73.8108 15.096 74.6148 15.012L74.6508 14.004C73.8708 14.148 72.3828 14.28 71.0748 14.28C68.9988 14.28 68.9868 13.824 68.9388 12.528C68.9148 11.7 68.9508 8.4 68.9628 7.104C68.9628 6.732 68.9748 6.408 69.0108 6.132ZM65.4228 9L65.5188 9.984C65.8548 9.936 66.3708 9.864 66.7308 9.816C68.2548 9.636 73.0788 9.132 74.9988 9.096C75.2988 9.096 75.7548 9.084 75.9348 9.096V8.148C75.6588 8.172 75.3108 8.196 74.9988 8.208C72.5388 8.34 67.9668 8.82 66.6708 8.928C66.2388 8.976 65.7948 9 65.4228 9Z" fill="white"/>
</svg>
