<svg width="180" height="40" viewBox="0 0 180 40" fill="none" xmlns="http://www.w3.org/2000/svg">
<rect width="180" height="40" rx="4" fill="black"/>
<path d="M70.928 22.712H75.408C75.632 22.712 75.808 22.632 75.856 22.456C75.184 21.864 74.08 21 74.08 21L73.104 22.264H70.928V19.208H75.296C75.52 19.208 75.696 19.128 75.728 18.952C75.472 18.728 75.152 18.472 74.848 18.248C75.552 17.8 76.336 17.192 76.832 16.728C77.152 16.696 77.328 16.664 77.456 16.536L75.76 14.92L74.8 15.896H70.944V14.056C71.376 13.976 71.504 13.816 71.536 13.592L69.008 13.4V15.896H65.072C65.024 15.592 64.944 15.272 64.816 14.92H64.592C64.608 15.832 63.936 16.648 63.328 16.968C62.832 17.192 62.48 17.656 62.672 18.232C62.896 18.856 63.68 19 64.208 18.664C64.768 18.296 65.216 17.496 65.136 16.344H74.88C74.768 16.84 74.624 17.448 74.464 17.96C74.16 17.72 73.936 17.56 73.936 17.56L72.944 18.76H64.592L64.72 19.208H69.04V25.784C68 25.432 67.216 24.856 66.608 23.912C66.912 23.176 67.12 22.408 67.28 21.656C67.664 21.64 67.84 21.48 67.904 21.256L65.408 20.84C65.232 23.24 64.512 26.264 62.432 28.264L62.56 28.408C64.464 27.4 65.648 25.976 66.384 24.424C67.568 27.368 69.616 28.056 73.312 28.056H76.528C76.544 27.272 76.864 26.568 77.52 26.424V26.232C76.48 26.248 74.336 26.248 73.408 26.248C72.48 26.248 71.664 26.216 70.928 26.152V22.712ZM78.544 28.44C79.984 27.752 81.328 26.648 82.32 25.048C82.672 25.08 82.896 24.968 82.976 24.792L80.672 23.864C80.176 25.608 79.264 27.272 78.368 28.296L78.544 28.44ZM83.12 24.088C83.664 24.76 84.224 25.784 84.336 26.712C85.888 27.896 87.424 24.856 83.264 23.992L83.12 24.088ZM88.864 21.768C88.912 21.144 88.928 20.504 88.928 19.896V18.584H91.104V21.768H88.864ZM91.104 15.096V18.136H88.928V15.096H91.104ZM81.616 21.08H83.616V23.192H81.616V21.08ZM83.616 16.52V18.264H81.616V16.52H83.616ZM81.616 18.728H83.616V20.648H81.616V18.728ZM91.776 13.672L90.944 14.632H89.216L87.232 13.912V19.912C87.232 20.968 87.2 22.024 87.072 23.032C86.608 22.52 86.048 21.976 86.048 21.976L85.36 23.096V16.52H86.8C87.008 16.52 87.168 16.44 87.2 16.264C86.784 15.736 86.016 14.968 86.016 14.968L85.36 16.024V14.264C85.76 14.2 85.872 14.04 85.904 13.832L83.616 13.624V16.056H81.616V14.232C81.984 14.168 82.096 14.024 82.128 13.832L79.888 13.608V16.056H78.656L78.784 16.52H79.888V23.192H78.4L78.528 23.64H86.976H86.992C86.704 25.32 86.096 26.872 84.848 28.216L85.024 28.36C87.728 26.776 88.576 24.52 88.816 22.232H91.104V26.056C91.104 26.28 91.04 26.376 90.768 26.376C90.448 26.376 88.96 26.296 88.96 26.296V26.52C89.696 26.648 90.032 26.84 90.272 27.112C90.48 27.368 90.56 27.816 90.608 28.392C92.608 28.2 92.864 27.496 92.864 26.248V15.384C93.184 15.32 93.424 15.192 93.536 15.048L91.776 13.672ZM98.16 15.016V17.384H96.8V15.016H98.16ZM96.8 20.28V17.848H98.16V20.28H96.8ZM96.8 23.208V20.728H98.16V23.208H96.8ZM97.616 24.52C97.76 24.712 97.888 24.936 98.016 25.192L96.496 24.504C96.688 24.408 96.8 24.312 96.8 24.248V23.672H98.16V24.44H98.448C99.264 24.44 99.84 24.072 99.84 23.976V15.16C100.176 15.096 100.352 14.984 100.48 14.84L98.912 13.592L98.096 14.552H96.976L95.216 13.864V24.696H95.488C95.68 24.696 95.872 24.68 96.016 24.648C95.76 25.768 95.168 27.24 94.4 28.248L94.576 28.424C95.84 27.672 96.864 26.456 97.488 25.464C97.824 25.496 97.968 25.416 98.064 25.288C98.352 25.896 98.576 26.616 98.592 27.256C100 28.504 101.584 25.608 97.792 24.424L97.616 24.52ZM105.216 24.552V22.888H106.528V24.552H105.216ZM102.384 22.888H103.648V24.552H102.384V22.888ZM103.648 20.84V22.44H102.384V20.84H103.648ZM106.528 20.84V22.44H105.216V20.84H106.528ZM103.584 17.464H105.232V18.792H103.584V17.464ZM103.584 15.768H105.232V17H103.584V15.768ZM108.144 24.344V21.064C108.464 21.016 108.672 20.888 108.768 20.776L107.104 19.512L106.368 20.376H105.216V19.24H109.072C109.296 19.24 109.456 19.16 109.488 18.984C108.96 18.488 108.08 17.752 108.08 17.752L107.328 18.792H106.864V17.464H108.608C108.832 17.464 108.976 17.384 109.024 17.208C108.56 16.76 107.808 16.12 107.808 16.12L107.136 17H106.864V15.768H108.944C109.168 15.768 109.328 15.688 109.36 15.512C108.832 14.984 107.968 14.264 107.968 14.264L107.184 15.304H106.864V14.136C107.216 14.072 107.328 13.944 107.36 13.736L105.232 13.544V15.304H103.584V14.136C103.936 14.072 104.048 13.928 104.064 13.736L101.952 13.544V15.304H100.192L100.32 15.768H101.952V17H100.4L100.528 17.464H101.952V18.792H100L100.112 19.24H103.648V20.376H102.48L100.8 19.672V24.552H99.744L99.872 25H100.8V28.44H101.04C101.728 28.44 102.384 28.072 102.384 27.912V25H106.528V26.248C106.528 26.456 106.448 26.552 106.208 26.552C105.92 26.552 104.608 26.456 104.608 26.456V26.696C105.264 26.808 105.568 26.984 105.776 27.24C105.968 27.48 106.048 27.88 106.08 28.408C107.936 28.232 108.144 27.576 108.144 26.44V25H109.424C109.648 25 109.792 24.936 109.824 24.76C109.44 24.248 108.688 23.48 108.688 23.48L108.144 24.344ZM116.976 14.936H113.536L113.664 15.384H117.392V16.36C116.992 21.608 114 26.28 110.512 28.248L110.608 28.408C114.304 26.952 117.104 24.184 118.288 20.952C119.088 24.232 121.52 27.192 123.648 28.424C123.984 27.384 124.576 26.792 125.52 26.664L125.584 26.488C120.912 24.568 118.384 21.32 117.888 16.44V15.88C118.88 15.784 119.648 15.576 119.952 15.208L117.792 13.64L116.976 14.936ZM133.552 23.352C132.816 23.352 132.32 22.728 132.32 22.008C132.32 21.16 132.848 20.536 133.6 20.536C134.272 20.536 134.576 21.176 134.576 21.96C134.576 22.888 134.304 23.352 133.552 23.352ZM132.656 14.952C133.104 15.032 133.488 15.112 133.744 15.224C134 15.336 134.08 15.448 134.128 15.72C134.176 16.04 134.224 16.552 134.272 17.096C132.464 17.32 129.44 17.704 128.752 17.672C128.192 17.672 127.952 17.4 127.376 16.744L127.136 16.84C127.12 17.192 127.12 17.64 127.232 17.992C127.408 18.632 128.336 19.48 128.96 19.48C129.52 19.48 129.856 19.144 130.608 18.92C131.376 18.696 132.72 18.376 134.352 18.168C134.384 18.76 134.416 19.336 134.448 19.752C134.24 19.704 134.016 19.688 133.776 19.688C132.464 19.688 131.472 20.76 131.472 22.168C131.472 23.784 132.656 25.112 134.256 24.664C133.632 26.168 132 27.192 130.048 27.896L130.176 28.2C133.696 27.704 136.4 25.992 136.4 22.68C136.4 21.832 136.208 21.048 135.728 20.488C135.728 19.688 135.728 18.792 135.744 18.008C138.688 17.768 139.712 18.216 140.416 18.216C140.896 18.216 141.216 18.136 141.216 17.592C141.216 16.856 140.144 16.392 139.296 16.392C139.04 16.392 138.72 16.6 135.776 16.936C135.776 16.632 135.792 16.392 135.808 16.248C135.856 15.864 136.128 15.528 136.128 15.096C136.128 14.568 134.976 14.152 134.064 14.152C133.536 14.152 133.008 14.456 132.624 14.728L132.656 14.952ZM149.616 26.328C148.384 26.328 147.648 25.944 147.648 25.336C147.648 24.84 148.048 24.536 148.656 24.536C149.536 24.536 150.176 25.224 150.368 26.296C150.128 26.312 149.888 26.328 149.616 26.328ZM146.016 14.92C145.92 15.32 145.872 15.592 145.888 15.96C145.936 16.52 146.656 17.608 147.6 17.608C147.936 17.608 148.208 17.368 148.512 17.176C149.12 16.824 150.112 16.28 150.704 16.184C150.96 16.136 151.12 16.248 150.848 16.6C150.016 17.736 146.656 20.904 145.088 22.44C144.56 22.952 144.304 23.304 144.272 23.736C144.24 24.344 144.592 24.76 144.944 24.776C145.344 24.792 145.504 24.648 145.888 24.152C147.248 22.392 148.784 20.792 150.976 20.792C152.816 20.792 153.76 21.88 153.744 23.288C153.728 24.392 153.184 25.416 151.856 25.96C151.472 24.392 150.16 23.784 149.072 23.784C147.888 23.784 146.928 24.472 146.928 25.528C146.928 26.92 148.32 27.736 150.192 27.736C153.488 27.736 155.392 26.008 155.408 23.864C155.424 21.464 153.616 20.12 151.456 20.12C150.224 20.12 149.312 20.488 148.784 20.664C148.624 20.712 148.528 20.6 148.704 20.424C149.312 19.784 151.28 18.088 152.336 17.4C152.864 17.032 153.424 16.904 153.424 16.456C153.424 15.768 152.16 14.76 151.408 14.76C151.072 14.76 151.072 15 150.448 15.208C149.584 15.48 147.904 15.88 147.328 15.88C146.912 15.88 146.512 15.416 146.24 14.904L146.016 14.92Z" fill="white"/>
<path d="M23 10H25.9219L28.8438 14.1237M28.8438 14.1237H45L42.25 22.0412H28.8438M28.8438 14.1237V22.0412M28.8438 22.0412V26H40.875" stroke="white" stroke-width="2" stroke-linecap="round" stroke-linejoin="round"/>
<path d="M29.5 32C30.3284 32 31 31.3284 31 30.5C31 29.6716 30.3284 29 29.5 29C28.6716 29 28 29.6716 28 30.5C28 31.3284 28.6716 32 29.5 32Z" fill="white"/>
<path d="M39.5 32C40.3284 32 41 31.3284 41 30.5C41 29.6716 40.3284 29 39.5 29C38.6716 29 38 29.6716 38 30.5C38 31.3284 38.6716 32 39.5 32Z" fill="white"/>
</svg>
