<svg width="351" height="40" viewBox="0 0 351 40" fill="none" xmlns="http://www.w3.org/2000/svg">
<rect x="0.5" y="0.5" width="350" height="39" rx="3.5" fill="white"/>
<path d="M97.276 16.186V17.32C98.382 17.418 99.586 17.474 100.986 17.474C102.274 17.474 103.8 17.376 104.752 17.306V16.158C103.744 16.27 102.33 16.354 100.986 16.354C99.572 16.354 98.284 16.298 97.276 16.186ZM97.836 21.828L96.702 21.716C96.576 22.276 96.422 22.934 96.422 23.662C96.422 25.426 98.074 26.35 100.916 26.35C102.904 26.35 104.682 26.14 105.69 25.874L105.676 24.67C104.612 25.006 102.806 25.216 100.888 25.216C98.648 25.216 97.556 24.488 97.556 23.41C97.556 22.892 97.668 22.374 97.836 21.828ZM115.882 16.452L114.72 16.424C114.58 17.88 114.286 19.462 113.88 20.792C113.166 23.158 112.41 24.11 111.752 24.11C111.122 24.11 110.324 23.326 110.324 21.562C110.324 19.504 112.242 16.97 115.322 16.97C118.01 16.97 119.564 18.818 119.564 21.058C119.564 23.48 117.8 24.824 116.008 25.23C115.672 25.3 115.252 25.356 114.804 25.398L115.448 26.434C118.78 26 120.712 24.04 120.712 21.114C120.712 18.272 118.626 15.962 115.35 15.962C111.92 15.962 109.218 18.608 109.218 21.646C109.218 23.97 110.464 25.398 111.724 25.398C113.012 25.398 114.132 23.914 114.986 21.044C115.42 19.546 115.7 17.908 115.882 16.452ZM122.952 15.57V16.536H135.062V15.57H122.952ZM128.412 14.254V16.13H129.49V14.254H128.412ZM123.554 18.02V27.106H124.548V18.958H134.124V18.02H123.554ZM133.564 18.02V25.832C133.564 26.042 133.494 26.112 133.242 26.112C132.99 26.126 132.15 26.14 131.24 26.098C131.38 26.378 131.548 26.854 131.59 27.134C132.752 27.134 133.522 27.106 133.984 26.952C134.432 26.784 134.572 26.448 134.572 25.832V18.02H133.564ZM127.082 18.706C126.97 20.176 126.522 20.876 124.632 21.254C124.814 21.422 125.052 21.786 125.15 22.01C127.306 21.492 127.894 20.54 128.034 18.706H127.082ZM129.686 18.706V20.358C129.686 21.226 129.91 21.45 130.918 21.45C131.114 21.45 132.164 21.45 132.374 21.45C133.116 21.45 133.368 21.17 133.452 20.036C133.2 19.98 132.822 19.854 132.64 19.714C132.598 20.554 132.542 20.638 132.248 20.638C132.024 20.638 131.198 20.638 131.016 20.638C130.666 20.638 130.61 20.61 130.61 20.344V18.706H129.686ZM126.396 22.178V26.476H127.334V22.178H126.396ZM126.956 22.178V23.004H130.764V24.796H126.956V25.622H131.716V22.178H126.956ZM125.64 16.536C125.948 17.082 126.256 17.81 126.382 18.286L127.446 18.034C127.306 17.572 126.984 16.858 126.662 16.326L125.64 16.536ZM131.282 16.284C131.086 16.802 130.722 17.586 130.428 18.076L131.45 18.286C131.744 17.824 132.094 17.166 132.43 16.494L131.282 16.284ZM140.214 15.85H145.814V18.51H140.214V15.85ZM139.192 14.842V19.518H146.878V14.842H139.192ZM137.162 21.002V27.12H138.156V22.01H141.096V27.008H142.146V21.002H137.162ZM143.672 21.002V27.12H144.68V22.01H147.886V27.036H148.936V21.002H143.672ZM137.61 25.356V26.364H141.516V25.356H137.61ZM144.19 25.356V26.364H148.348V25.356H144.19ZM156.37 16.55L156.384 17.684C157.91 17.852 160.626 17.852 162.124 17.684V16.55C160.738 16.76 157.896 16.816 156.37 16.55ZM156.916 22.262L155.908 22.164C155.754 22.836 155.684 23.34 155.684 23.802C155.684 25.118 156.734 25.902 159.072 25.902C160.528 25.902 161.704 25.79 162.572 25.608L162.544 24.432C161.424 24.698 160.332 24.81 159.086 24.81C157.168 24.81 156.72 24.18 156.72 23.536C156.72 23.158 156.79 22.766 156.916 22.262ZM153.71 15.472L152.464 15.374C152.45 15.682 152.408 16.032 152.366 16.354C152.198 17.516 151.736 19.91 151.736 21.968C151.736 23.872 151.974 25.482 152.254 26.476L153.248 26.406C153.234 26.252 153.22 26.056 153.206 25.916C153.206 25.748 153.234 25.482 153.276 25.286C153.402 24.614 153.92 23.144 154.27 22.15L153.682 21.688C153.444 22.262 153.122 23.102 152.884 23.732C152.8 23.046 152.758 22.458 152.758 21.786C152.758 20.204 153.192 17.712 153.458 16.41C153.514 16.158 153.626 15.71 153.71 15.472ZM165.008 18.692L165.526 19.938C166.646 19.49 170.202 17.95 172.512 17.95C174.402 17.95 175.48 19.112 175.48 20.582C175.48 23.438 172.204 24.558 168.55 24.656L169.054 25.818C173.366 25.566 176.698 23.956 176.698 20.596C176.698 18.258 174.85 16.914 172.54 16.914C170.496 16.914 167.738 17.922 166.562 18.3C166.03 18.454 165.526 18.608 165.008 18.692ZM181.122 16.242L179.764 16.214C179.848 16.536 179.848 17.138 179.848 17.46C179.848 18.272 179.876 19.98 180.002 21.184C180.394 24.81 181.654 26.126 182.984 26.126C183.936 26.126 184.776 25.314 185.63 22.948L184.748 21.954C184.384 23.354 183.726 24.796 183.012 24.796C182.004 24.796 181.332 23.242 181.094 20.904C180.996 19.756 180.982 18.468 180.996 17.6C181.01 17.236 181.052 16.564 181.122 16.242ZM188.402 16.62L187.324 16.998C188.654 18.636 189.508 21.52 189.746 24.04L190.88 23.592C190.67 21.226 189.662 18.244 188.402 16.62ZM192.752 16.704L192.878 17.936C194.404 17.614 197.96 17.264 199.472 17.11C198.184 17.866 196.854 19.644 196.854 21.828C196.854 24.964 199.794 26.336 202.398 26.434L202.79 25.286C200.522 25.188 197.96 24.32 197.96 21.59C197.96 19.938 199.178 17.796 201.18 17.152C201.894 16.956 203.112 16.928 203.924 16.942L203.91 15.822C202.972 15.85 201.67 15.934 200.144 16.06C197.554 16.284 194.922 16.536 194.012 16.634C193.732 16.662 193.284 16.69 192.752 16.704ZM210.892 14.828H209.66C209.702 15.052 209.73 15.542 209.73 15.808C209.73 16.382 209.674 18.664 209.674 20.274C209.674 21.828 209.744 23.774 209.744 24.586C209.744 25.048 209.562 25.272 209.24 25.272C208.694 25.272 207.714 24.712 207.714 24.082C207.714 23.368 208.792 22.43 210.164 21.898C211.354 21.422 212.502 21.156 213.762 21.156C215.078 21.156 216.156 21.786 216.156 22.976C216.156 24.278 215.036 24.936 213.818 25.174C213.286 25.286 212.698 25.272 212.166 25.272L212.558 26.392C213.048 26.364 213.678 26.336 214.294 26.196C216.226 25.748 217.29 24.67 217.29 22.976C217.29 21.296 215.82 20.19 213.762 20.19C212.656 20.19 211.256 20.442 210.01 20.932C208.274 21.59 206.608 22.892 206.608 24.124C206.608 25.384 208.428 26.448 209.52 26.448C210.29 26.448 210.766 26.028 210.766 24.74C210.766 23.858 210.696 21.674 210.696 20.218C210.696 18.762 210.766 16.62 210.808 15.794C210.822 15.458 210.85 15.08 210.892 14.828ZM215.246 16.382L214.728 17.222C215.624 17.698 217.192 18.664 217.878 19.308L218.438 18.412C217.766 17.852 216.24 16.9 215.246 16.382ZM206.846 17.334L206.874 18.412C207.336 18.454 207.868 18.482 208.652 18.482C209.912 18.482 212.208 18.174 213.65 17.824L213.622 16.732C212.236 17.152 210.01 17.446 208.624 17.446C208.12 17.446 207.616 17.432 206.846 17.334ZM223.926 21.044V21.926H227.734V24.264H223.926V25.146H228.714V21.044H223.926ZM223.464 21.044V25.986H224.444V21.044H223.464ZM220.93 16.872V17.656H224.822V16.872H220.93ZM227.384 16.872V17.656H231.346V16.872H227.384ZM230.884 14.842V25.706C230.884 25.972 230.8 26.056 230.534 26.056C230.268 26.07 229.344 26.084 228.42 26.042C228.574 26.336 228.756 26.826 228.798 27.12C230.03 27.12 230.842 27.106 231.318 26.938C231.766 26.756 231.934 26.42 231.934 25.72V14.842H230.884ZM221.014 14.842V15.696H224.5V18.93H221.014V19.784H225.494V14.842H221.014ZM231.43 14.842H226.754V19.784H231.43V18.944H227.762V15.682H231.43V14.842ZM220.426 14.842V27.134H221.462V14.842H220.426ZM236.274 16.242L234.916 16.214C235 16.536 235 17.138 235 17.46C235 18.272 235.028 19.98 235.154 21.184C235.546 24.81 236.806 26.126 238.136 26.126C239.088 26.126 239.928 25.314 240.782 22.948L239.9 21.954C239.536 23.354 238.878 24.796 238.164 24.796C237.156 24.796 236.484 23.242 236.246 20.904C236.148 19.756 236.134 18.468 236.148 17.6C236.162 17.236 236.204 16.564 236.274 16.242ZM243.554 16.62L242.476 16.998C243.806 18.636 244.66 21.52 244.898 24.04L246.032 23.592C245.822 21.226 244.814 18.244 243.554 16.62ZM250.624 18.818V19.756H257.694V18.818H250.624ZM250.372 25.622V26.56H257.876V25.622H250.372ZM249.896 21.52V27.134H250.918V22.472H257.4V27.134H258.464V21.52H249.896ZM254.11 15.318C255.426 17.11 257.89 19.084 260.088 20.232C260.27 19.924 260.522 19.56 260.788 19.308C258.548 18.314 256.098 16.368 254.586 14.282H253.522C252.416 16.088 250.078 18.23 247.614 19.476C247.852 19.7 248.132 20.078 248.272 20.316C250.666 19.014 252.962 17.026 254.11 15.318ZM268.544 25.006L269.048 26.056C272.1 25.468 274.158 23.998 274.144 21.17C274.144 19 272.422 17.642 270.476 17.642C269.006 17.642 267.228 18.23 265.548 19.812V21.058C266.906 19.644 268.516 18.65 270.308 18.65C272.17 18.65 273.024 20.078 273.024 21.156C273.038 23.564 270.91 24.656 268.544 25.006ZM265.38 18.258L265.268 18.622L265.212 19.336C264.666 20.26 262.776 22.836 261.908 23.928L262.608 24.88C263.49 23.662 264.792 21.772 265.436 20.778L265.856 18.86C266.094 18.468 266.472 17.866 266.71 17.502L266.304 17.026C265.646 17.236 263.91 17.446 263.168 17.488C262.818 17.516 262.552 17.516 262.244 17.502L262.37 18.664C263.406 18.51 264.932 18.314 265.38 18.258ZM265.24 15.934C265.24 16.452 264.904 20.89 264.876 22.122C264.862 23.662 264.848 24.362 264.848 25.72C264.848 25.944 264.82 26.35 264.806 26.546H266.01C265.996 26.28 265.954 25.93 265.94 25.692C265.884 24.446 265.884 23.592 265.884 22.318C265.884 19.854 266.318 15.85 266.514 14.94L265.184 14.898C265.254 15.248 265.24 15.612 265.24 15.934ZM285.498 15.206H284.308C284.35 15.458 284.392 15.948 284.392 16.27C284.392 17.04 284.392 18.02 284.378 18.804C284.364 19.798 284.308 21.016 284.224 21.548C284.168 21.87 284.028 21.926 283.678 21.926C283.356 21.926 282.768 21.856 282.278 21.744L282.264 22.724C282.628 22.794 283.594 22.92 284.112 22.92C284.742 22.92 285.064 22.738 285.19 22.108C285.33 21.38 285.372 19.868 285.4 18.79C285.428 18.076 285.428 17.096 285.442 16.228C285.442 15.92 285.47 15.444 285.498 15.206ZM279.968 15.654H278.736C278.806 16.074 278.82 16.41 278.82 16.83C278.82 17.474 278.806 22.094 278.834 23.27C278.89 25.496 279.198 26.252 282.432 26.252C283.86 26.252 285.568 26.112 286.506 26.014L286.548 24.838C285.638 25.006 283.902 25.16 282.376 25.16C279.954 25.16 279.94 24.628 279.884 23.116C279.856 22.15 279.898 18.3 279.912 16.788C279.912 16.354 279.926 15.976 279.968 15.654ZM275.782 19L275.894 20.148C276.286 20.092 276.888 20.008 277.308 19.952C279.086 19.742 284.714 19.154 286.954 19.112C287.304 19.112 287.836 19.098 288.046 19.112V18.006C287.724 18.034 287.318 18.062 286.954 18.076C284.084 18.23 278.75 18.79 277.238 18.916C276.734 18.972 276.216 19 275.782 19Z" fill="black"/>
<rect x="63" y="14" width="18" height="13" rx="1" stroke="#666666" stroke-width="2"/>
<path d="M64.5 15L72.24 21L79.5 15" stroke="#666666" stroke-width="2" stroke-linecap="round" stroke-linejoin="round"/>
<rect x="0.5" y="0.5" width="350" height="39" rx="3.5" stroke="#C4C4C4"/>
</svg>
