<svg width="24" height="24" viewBox="0 0 24 24" fill="none" xmlns="http://www.w3.org/2000/svg">
<mask id="path-1-inside-1_1897_9598" fill="white">
<path fill-rule="evenodd" clip-rule="evenodd" d="M11.5885 2.51762C10.5216 2.23174 9.42493 2.8649 9.13905 3.93183L7 11.9149L7.06784 11.933C7.02361 12.1714 7.00043 12.4178 7.00043 12.6703V22H17.4497C18.3624 22 19.1593 21.382 19.3866 20.4981L20.9022 14.6041C21.4907 12.3158 19.9778 10.0187 17.6431 9.6555L13.9701 9.08416L14.417 7.4166C14.9887 5.28273 13.7224 3.08939 11.5885 2.51762Z"/>
</mask>
<path d="M9.13905 3.93183L7.20719 3.41419L7.20719 3.41419L9.13905 3.93183ZM11.5885 2.51762L12.1062 0.585768L12.1062 0.585768L11.5885 2.51762ZM7 11.9149L5.06815 11.3972L4.55051 13.3291L6.48237 13.8467L7 11.9149ZM7.06784 11.933L9.03429 12.2978L9.37154 10.4797L7.58546 10.0012L7.06784 11.933ZM7.00043 22H5.00043V24H7.00043V22ZM19.3866 20.4981L17.4497 20L19.3866 20.4981ZM20.9022 14.6041L18.9652 14.1061L20.9022 14.6041ZM17.6431 9.6555L17.9505 7.67927L17.6431 9.6555ZM13.9701 9.08416L12.0383 8.56652L11.4618 10.718L13.6627 11.0604L13.9701 9.08416ZM14.417 7.4166L12.4851 6.89896L14.417 7.4166ZM11.0709 4.44947L11.0709 4.44947L12.1062 0.585768C9.97231 0.0140018 7.77896 1.28032 7.20719 3.41419L11.0709 4.44947ZM8.93185 12.4325L11.0709 4.44947L7.20719 3.41419L5.06815 11.3972L8.93185 12.4325ZM7.58546 10.0012L7.51763 9.983L6.48237 13.8467L6.55021 13.8649L7.58546 10.0012ZM9.00043 12.6703C9.00043 12.5405 9.01232 12.4162 9.03429 12.2978L5.10138 11.5683C5.0349 11.9267 5.00043 12.2951 5.00043 12.6703H9.00043ZM9.00043 22V12.6703H5.00043V22H9.00043ZM17.4497 20H7.00043V24H17.4497V20ZM17.4497 20H17.4497V24C19.2751 24 20.869 22.7641 21.3236 20.9961L17.4497 20ZM18.9652 14.1061L17.4497 20L21.3236 20.9961L22.8392 15.1022L18.9652 14.1061ZM17.3357 11.6317C18.503 11.8133 19.2595 12.9619 18.9652 14.1061L22.8392 15.1022C23.7219 11.6696 21.4526 8.22404 17.9505 7.67927L17.3357 11.6317ZM13.6627 11.0604L17.3357 11.6317L17.9505 7.67927L14.2776 7.10792L13.6627 11.0604ZM12.4851 6.89896L12.0383 8.56652L15.902 9.6018L16.3488 7.93424L12.4851 6.89896ZM11.0709 4.44947C12.1378 4.73535 12.771 5.83203 12.4851 6.89896L16.3488 7.93424C17.2065 4.73344 15.307 1.44342 12.1062 0.585768L11.0709 4.44947Z" fill="#666666" mask="url(#path-1-inside-1_1897_9598)"/>
<path d="M4 13C4 12.4477 4.44772 12 5 12H8V21H5C4.44772 21 4 20.5523 4 20V13Z" stroke="#666666" stroke-width="2" stroke-linejoin="round"/>
</svg>
