<svg width="40" height="40" viewBox="0 0 40 40" fill="none" xmlns="http://www.w3.org/2000/svg">
<path d="M19.6845 30C16.4258 29.8992 13.327 29.8208 10.2281 29.7032C9.56039 29.6752 8.88127 29.5744 8.23068 29.4231C7.00939 29.1431 6.16477 28.4206 5.73104 27.2389C5.38291 26.2868 5.25736 25.3067 5.16605 24.3098C4.96631 21.9688 4.96631 19.6277 5.06333 17.2867C5.1204 15.9649 5.15464 14.632 5.51417 13.3495C5.73104 12.5822 5.99356 11.8317 6.62703 11.2772C7.29474 10.6892 8.07659 10.3363 8.96687 10.2971C11.4094 10.1795 13.8463 10.0339 16.2889 10.0115C19.5761 9.9779 22.869 10.0227 26.1562 10.0843C27.5772 10.1123 29.0096 10.1851 30.4193 10.3643C31.709 10.5324 32.6735 11.238 33.1871 12.4702C33.5809 13.4167 33.7293 14.408 33.8149 15.4161C34.0375 17.9419 34.0432 20.4678 33.9176 22.9937C33.8548 24.2762 33.7921 25.5643 33.4211 26.8133C32.9988 28.247 32.1028 29.1935 30.6076 29.5184C30.0255 29.6416 29.4205 29.6864 28.827 29.7088C25.7224 29.8152 22.6236 29.9104 19.6845 30ZM16.5286 23.6321C19.1309 22.3104 21.7048 20.9999 24.33 19.6613C21.7105 18.3172 19.1366 17.001 16.5286 15.6625C16.5286 18.334 16.5286 20.9606 16.5286 23.6321Z" fill="#CCCCCC"/>
</svg>
