<svg width="156" height="40" viewBox="0 0 156 40" fill="none" xmlns="http://www.w3.org/2000/svg">
<rect x="0.5" y="0.5" width="155" height="39" rx="3.5" fill="white"/>
<path d="M70.164 16.256L68.82 16.228C68.89 16.564 68.904 17.138 68.904 17.46C68.904 18.272 68.918 19.952 69.058 21.156C69.436 24.754 70.696 26.056 71.998 26.056C72.95 26.056 73.804 25.258 74.63 22.906L73.748 21.898C73.384 23.298 72.74 24.726 72.026 24.726C71.046 24.726 70.374 23.2 70.15 20.876C70.052 19.742 70.038 18.468 70.052 17.6C70.066 17.236 70.108 16.592 70.164 16.256ZM77.388 16.634L76.296 17.012C77.612 18.636 78.452 21.38 78.69 23.872L79.824 23.424C79.628 21.086 78.634 18.244 77.388 16.634ZM84.164 16.256L82.82 16.228C82.89 16.564 82.904 17.138 82.904 17.46C82.904 18.272 82.918 19.952 83.058 21.156C83.436 24.754 84.696 26.056 85.998 26.056C86.95 26.056 87.804 25.258 88.63 22.906L87.748 21.898C87.384 23.298 86.74 24.726 86.026 24.726C85.046 24.726 84.374 23.2 84.15 20.876C84.052 19.742 84.038 18.468 84.052 17.6C84.066 17.236 84.108 16.592 84.164 16.256ZM91.388 16.634L90.296 17.012C91.612 18.636 92.452 21.38 92.69 23.872L93.824 23.424C93.628 21.086 92.634 18.244 91.388 16.634ZM103.974 25.09C103.19 25.09 102.56 24.782 102.56 24.068C102.56 23.508 103.19 23.102 103.904 23.102C104.562 23.102 105.192 23.284 105.794 23.606C105.486 24.516 104.94 25.09 103.974 25.09ZM100.18 17.026L100.11 17.054C100.208 16.088 100.32 15.304 100.39 14.968L99.06 14.926C99.13 15.276 99.116 15.64 99.116 15.962C99.116 16.116 99.088 16.62 99.046 17.264C98.332 17.39 97.52 17.474 97.072 17.502C96.736 17.516 96.47 17.53 96.162 17.516L96.274 18.664C97.142 18.552 98.346 18.384 98.976 18.314C98.948 18.748 98.92 19.196 98.892 19.644C98.192 20.736 96.596 22.892 95.826 23.858L96.526 24.824C97.198 23.9 98.108 22.57 98.78 21.548C98.78 21.758 98.766 21.94 98.766 22.08C98.738 23.62 98.738 24.306 98.724 25.636C98.724 25.86 98.696 26.266 98.682 26.462H99.9C99.872 26.21 99.844 25.86 99.83 25.622C99.774 24.376 99.774 23.536 99.774 22.276C99.774 21.744 99.788 21.128 99.83 20.498C101.048 19.196 102.84 17.866 104.128 17.866C105.276 17.866 106.13 18.93 106.13 20.666C106.13 21.366 106.102 22.024 106.018 22.612C105.416 22.346 104.744 22.192 104.002 22.192C102.588 22.192 101.594 23.004 101.594 24.11C101.594 25.51 102.714 26.084 104.044 26.084C105.444 26.084 106.27 25.412 106.732 24.236C107.138 24.572 107.558 24.978 107.964 25.44L108.552 24.53C108.076 24.026 107.572 23.564 107.012 23.172C107.138 22.5 107.194 21.73 107.194 20.862C107.194 18.566 106.2 16.886 104.324 16.886C102.812 16.886 101.09 18.118 99.914 19.168C99.928 18.93 99.956 18.706 99.97 18.482C100.18 18.146 100.418 17.768 100.586 17.516L100.18 17.026ZM115.538 22.612H116.462L116.812 17.18L116.84 15.528H115.16L115.202 17.18L115.538 22.612ZM116 26.07C116.616 26.07 117.12 25.65 117.12 24.964C117.12 24.306 116.616 23.872 116 23.872C115.384 23.872 114.88 24.306 114.88 24.964C114.88 25.65 115.384 26.07 116 26.07Z" fill="black"/>
<mask id="path-3-inside-1_2_13414" fill="white">
<path fill-rule="evenodd" clip-rule="evenodd" d="M44.5885 10.5179C43.5216 10.232 42.4249 10.8651 42.139 11.9321L40 19.9151L40.0678 19.9333C40.0236 20.1717 40.0004 20.4181 40.0004 20.6706V30.0002H50.4497C51.3624 30.0002 52.1593 29.3823 52.3866 28.4983L53.9022 22.6044C54.4907 20.316 52.9778 18.0189 50.6431 17.6557L46.9701 17.0844L47.417 15.4168C47.9887 13.283 46.7224 11.0896 44.5885 10.5179Z"/>
</mask>
<path d="M42.139 11.9321L40.2072 11.4144L40.2072 11.4144L42.139 11.9321ZM44.5885 10.5179L45.1062 8.58601L45.1062 8.58601L44.5885 10.5179ZM40 19.9151L38.0681 19.3975L37.5505 21.3293L39.4824 21.847L40 19.9151ZM40.0678 19.9333L42.0343 20.298L42.3715 18.48L40.5855 18.0014L40.0678 19.9333ZM40.0004 30.0002H38.0004V32.0002H40.0004V30.0002ZM52.3866 28.4983L50.4497 28.0002L52.3866 28.4983ZM53.9022 22.6044L51.9652 22.1063L53.9022 22.6044ZM50.6431 17.6557L50.9505 15.6795L50.6431 17.6557ZM46.9701 17.0844L45.0383 16.5668L44.4618 18.7183L46.6627 19.0606L46.9701 17.0844ZM47.417 15.4168L45.4851 14.8992L47.417 15.4168ZM44.0709 12.4497L44.0709 12.4497L45.1062 8.58601C42.9723 8.01425 40.779 9.28057 40.2072 11.4144L44.0709 12.4497ZM41.9319 20.4327L44.0709 12.4497L40.2072 11.4144L38.0681 19.3975L41.9319 20.4327ZM40.5855 18.0014L40.5176 17.9832L39.4824 21.847L39.5502 21.8651L40.5855 18.0014ZM42.0004 20.6706C42.0004 20.5407 42.0123 20.4165 42.0343 20.298L38.1014 19.5685C38.0349 19.9269 38.0004 20.2954 38.0004 20.6706H42.0004ZM42.0004 30.0002V20.6706H38.0004V30.0002H42.0004ZM50.4497 28.0002H40.0004V32.0002H50.4497V28.0002ZM50.4497 28.0002H50.4497V32.0002C52.2751 32.0002 53.869 30.7643 54.3236 28.9964L50.4497 28.0002ZM51.9652 22.1063L50.4497 28.0002L54.3236 28.9964L55.8392 23.1025L51.9652 22.1063ZM50.3357 19.632C51.503 19.8136 52.2595 20.9621 51.9652 22.1063L55.8392 23.1025C56.7219 19.6699 54.4526 16.2243 50.9505 15.6795L50.3357 19.632ZM46.6627 19.0606L50.3357 19.632L50.9505 15.6795L47.2776 15.1082L46.6627 19.0606ZM45.4851 14.8992L45.0383 16.5668L48.902 17.602L49.3488 15.9345L45.4851 14.8992ZM44.0709 12.4497C45.1378 12.7356 45.771 13.8323 45.4851 14.8992L49.3488 15.9345C50.2065 12.7337 48.307 9.44366 45.1062 8.58601L44.0709 12.4497Z" fill="#666666" mask="url(#path-3-inside-1_2_13414)"/>
<path d="M37 21C37 20.4477 37.4477 20 38 20H41V29H38C37.4477 29 37 28.5523 37 28V21Z" stroke="#666666" stroke-width="2" stroke-linejoin="round"/>
<rect x="0.5" y="0.5" width="155" height="39" rx="3.5" stroke="#C4C4C4"/>
</svg>
