<svg width="156" height="40" viewBox="0 0 156 40" fill="none" xmlns="http://www.w3.org/2000/svg">
<rect x="0.5" y="0.5" width="155" height="39" rx="3.5" fill="white"/>
<path d="M64.116 25.202C63.57 25.202 62.618 24.656 62.618 24.026C62.618 23.396 63.444 22.612 64.564 22.08C64.578 23.088 64.606 24.026 64.606 24.53C64.606 24.964 64.438 25.202 64.116 25.202ZM65.572 20.204C65.572 19.644 65.586 18.986 65.6 18.328C66.608 18.216 67.672 18.034 68.484 17.852L68.47 16.746C67.686 16.984 66.636 17.18 65.628 17.306C65.642 16.69 65.656 16.144 65.67 15.808C65.684 15.486 65.712 15.108 65.74 14.856H64.522C64.578 15.094 64.606 15.556 64.606 15.836C64.606 16.088 64.592 16.69 64.578 17.418C64.2 17.446 63.836 17.46 63.514 17.46C63.01 17.46 62.506 17.446 61.75 17.348L61.778 18.412C62.31 18.468 62.912 18.482 63.542 18.482C63.836 18.482 64.186 18.468 64.564 18.44C64.55 19.056 64.55 19.7 64.55 20.26V21.044C62.954 21.73 61.512 22.934 61.512 24.068C61.512 25.314 63.318 26.364 64.41 26.364C65.152 26.364 65.642 25.958 65.642 24.67C65.642 24.068 65.614 22.85 65.586 21.674C66.58 21.324 67.56 21.128 68.596 21.128C69.912 21.128 70.976 21.758 70.976 22.934C70.976 24.222 69.87 24.88 68.652 25.104C68.12 25.216 67.546 25.202 67.028 25.202L67.42 26.308C67.896 26.294 68.512 26.266 69.128 26.126C71.032 25.664 72.082 24.6 72.082 22.92C72.082 21.268 70.626 20.162 68.61 20.162C67.7 20.162 66.622 20.33 65.572 20.666V20.204ZM69.562 17.236C70.444 17.712 71.984 18.65 72.67 19.308L73.23 18.412C72.558 17.852 71.046 16.9 70.066 16.382L69.562 17.236ZM86.922 16.648V15.766H78.2C78.368 15.36 78.522 14.94 78.662 14.506L77.584 14.254C77.01 16.214 75.932 18.006 74.574 19.126C74.854 19.294 75.316 19.616 75.526 19.798C76.38 19 77.164 17.908 77.794 16.648H86.922ZM85.592 18.622V17.754H77.556V18.622H85.592ZM81.322 20.876C80.888 21.66 80.342 22.402 79.712 23.074C78.816 22.472 77.892 21.912 77.038 21.436L76.296 22.122C77.164 22.612 78.088 23.2 78.956 23.816C77.794 24.88 76.422 25.748 74.952 26.378C75.176 26.56 75.568 26.966 75.722 27.176C77.178 26.476 78.564 25.538 79.768 24.404C80.776 25.16 81.644 25.916 82.204 26.56L83.03 25.776C82.428 25.132 81.532 24.376 80.524 23.648C81.196 22.906 81.798 22.094 82.302 21.212L81.322 20.876ZM75.96 19.742V20.638H83.968C84.052 24.46 84.346 27.064 86.194 27.078C87.048 27.064 87.272 26.434 87.37 24.684C87.146 24.544 86.838 24.292 86.642 24.082C86.614 25.258 86.544 26.056 86.264 26.056C85.214 26.056 85.018 23.354 85.004 19.742H75.96ZM90.506 15.402C90.506 15.696 90.45 16.06 90.408 16.382C90.24 17.516 89.792 19.896 89.792 21.94C89.792 23.816 90.016 25.412 90.296 26.392L91.304 26.322L91.262 25.832C91.262 25.678 91.29 25.412 91.332 25.216C91.458 24.558 91.962 23.088 92.312 22.108L91.71 21.66C91.486 22.206 91.178 23.018 90.94 23.648C90.856 22.976 90.828 22.416 90.828 21.744C90.828 20.19 91.234 17.712 91.5 16.438C91.556 16.186 91.682 15.738 91.766 15.5L90.506 15.402ZM93.922 22.122C93.796 22.71 93.698 23.256 93.698 23.76C93.698 25.062 94.734 25.832 97.058 25.832C98.5 25.832 99.662 25.72 100.516 25.552L100.502 24.376C99.382 24.628 98.318 24.74 97.072 24.74C95.168 24.74 94.748 24.124 94.748 23.494C94.748 23.116 94.804 22.724 94.93 22.22L93.922 22.122ZM94.398 17.712C95.91 17.866 98.598 17.866 100.082 17.712V16.564C98.696 16.76 95.896 16.816 94.384 16.564L94.398 17.712ZM105.22 15.136V16.172H108.664C108.692 16.704 108.748 17.32 108.846 17.964L108.23 17.866C107.376 21.786 105.654 24.6 102.56 26.21C102.84 26.392 103.302 26.826 103.498 27.036C106.284 25.398 108.048 22.85 109.084 19.224C109.714 21.87 111.198 24.936 114.642 27.022C114.824 26.77 115.244 26.322 115.482 26.154C109.994 22.892 109.672 17.614 109.672 15.136H105.22ZM119.542 14.954C119.528 15.29 119.486 15.71 119.43 16.144C119.262 17.264 119.01 19.308 119.01 20.624C119.01 21.52 119.08 22.304 119.15 22.822L120.242 22.738C120.144 22.052 120.144 21.576 120.214 21.044C120.382 19.224 121.978 16.718 123.7 16.718C125.17 16.718 125.898 18.286 125.898 20.47C125.898 23.956 123.546 25.16 120.536 25.622L121.194 26.63C124.638 26 127.06 24.306 127.06 20.456C127.06 17.544 125.73 15.696 123.882 15.696C122.132 15.696 120.676 17.418 120.13 18.846C120.214 17.88 120.48 16.018 120.774 14.996L119.542 14.954Z" fill="black"/>
<path d="M37.5832 11.9516L38.0063 12.6169L38.4277 11.9505C39.2273 10.686 40.6895 9.5008 43.4564 9.5C46.8122 9.50119 49.5 12.1192 49.5 15.3116C49.5 19.3913 46.6383 23.1868 43.6558 26.0175C42.1775 27.4205 40.6971 28.5606 39.5855 29.3502C39.0301 29.7446 38.5679 30.0508 38.2455 30.2578C38.1513 30.3183 38.069 30.3703 37.9999 30.4135C37.9308 30.3703 37.8486 30.3184 37.7544 30.2579C37.432 30.0511 36.9698 29.7451 36.4144 29.3508C35.3028 28.5616 33.8224 27.422 32.3442 26.0193C29.3618 23.1893 26.5 19.3938 26.5 15.3116C26.5 12.1184 29.189 9.5 32.5459 9.5C35.3143 9.5 36.7779 10.6854 37.5832 11.9516Z" fill="#666666" stroke="#666666"/>
<rect x="0.5" y="0.5" width="155" height="39" rx="3.5" stroke="#C4C4C4"/>
</svg>
