<svg width="40" height="40" viewBox="0 0 40 40" fill="none" xmlns="http://www.w3.org/2000/svg">
<g clip-path="url(#clip0_11_1885)">
<path d="M20.5 10.0729C23.5705 10.0729 23.9347 10.0844 25.1479 10.14C28.2644 10.2818 29.7201 11.7605 29.862 14.854C29.9175 16.0663 29.9281 16.4305 29.9281 19.501C29.9281 22.5724 29.9166 22.9356 29.862 24.1479C29.7192 27.2385 28.2673 28.7201 25.1479 28.862C23.9347 28.9175 23.5724 28.929 20.5 28.929C17.4295 28.929 17.0653 28.9175 15.853 28.862C12.7289 28.7192 11.2808 27.2338 11.139 24.147C11.0834 22.9347 11.0719 22.5715 11.0719 19.5C11.0719 16.4295 11.0844 16.0663 11.139 14.853C11.2818 11.7605 12.7337 10.2808 15.853 10.139C17.0663 10.0844 17.4295 10.0729 20.5 10.0729ZM20.5 8C17.3768 8 16.9858 8.01342 15.7591 8.069C11.5827 8.26067 9.26162 10.5779 9.06996 14.7582C9.01342 15.9858 9 16.3768 9 19.5C9 22.6232 9.01342 23.0152 9.069 24.2418C9.26067 28.4182 11.5779 30.7393 15.7582 30.931C16.9858 30.9866 17.3768 31 20.5 31C23.6232 31 24.0152 30.9866 25.2418 30.931C29.4144 30.7393 31.7412 28.4221 31.93 24.2418C31.9866 23.0152 32 22.6232 32 19.5C32 16.3768 31.9866 15.9858 31.931 14.7591C31.7432 10.5865 29.423 8.26162 25.2428 8.06996C24.0152 8.01342 23.6232 8 20.5 8V8ZM20.5 13.5947C17.2388 13.5947 14.5947 16.2388 14.5947 19.5C14.5947 22.7612 17.2388 25.4062 20.5 25.4062C23.7612 25.4062 26.4053 22.7622 26.4053 19.5C26.4053 16.2388 23.7612 13.5947 20.5 13.5947ZM20.5 23.3333C18.383 23.3333 16.6667 21.6179 16.6667 19.5C16.6667 17.383 18.383 15.6667 20.5 15.6667C22.617 15.6667 24.3333 17.383 24.3333 19.5C24.3333 21.6179 22.617 23.3333 20.5 23.3333ZM26.6391 11.9819C25.8762 11.9819 25.2581 12.6 25.2581 13.3619C25.2581 14.1237 25.8762 14.7419 26.6391 14.7419C27.401 14.7419 28.0181 14.1237 28.0181 13.3619C28.0181 12.6 27.401 11.9819 26.6391 11.9819Z" fill="#CCCCCC"/>
</g>
<defs>
<clipPath id="clip0_11_1885">
<rect width="23" height="23" fill="white" transform="translate(9 8)"/>
</clipPath>
</defs>
</svg>
