<svg width="180" height="40" viewBox="0 0 180 40" fill="none" xmlns="http://www.w3.org/2000/svg">
<rect width="180" height="40" rx="4" fill="black"/>
<path d="M79.04 15.864H84.992V17.8H80.208L80.336 18.248H91.888C92.112 18.248 92.288 18.168 92.336 17.992C91.648 17.352 90.48 16.456 90.48 16.456L89.44 17.8H86.944V15.864H92.848C93.072 15.864 93.248 15.784 93.296 15.608C92.592 14.984 91.44 14.072 91.44 14.072L90.416 15.416H86.944V14.104C87.44 14.04 87.568 13.864 87.6 13.608L84.992 13.416V15.416H78.912L79.04 15.864ZM90.688 20.376C90.48 21.096 90.16 22.024 89.904 22.632L90.032 22.744C90.928 22.248 92.112 21.4 92.784 20.792C93.12 20.776 93.296 20.728 93.424 20.6L91.648 18.888L90.608 19.928H81.296C81.232 19.624 81.12 19.288 80.976 18.936H80.768C80.816 19.976 80.144 20.856 79.52 21.176C78.992 21.416 78.64 21.88 78.832 22.472C79.056 23.096 79.824 23.256 80.4 22.92C81.024 22.552 81.52 21.656 81.376 20.376H90.688ZM78.544 28.424C83.968 27.32 84.976 24.968 85.152 21.976C85.536 21.944 85.696 21.784 85.744 21.528L83.136 21.272C83.36 24.088 82.816 26.696 78.448 28.216L78.544 28.424ZM92.944 24.072H92.768C92.464 25.048 92.208 25.848 92.048 26.136C91.952 26.296 91.856 26.344 91.648 26.344C91.44 26.36 91.008 26.36 90.496 26.36H89.12C88.656 26.36 88.576 26.296 88.576 26.056V21.88C88.896 21.832 89.056 21.688 89.072 21.48L86.752 21.272V26.504C86.752 27.752 87.104 28.072 88.704 28.072H90.304C92.896 28.072 93.6 27.736 93.6 26.968C93.6 26.632 93.488 26.424 92.992 26.216L92.944 24.072ZM98.88 16.456C98.88 17.512 98.176 20.184 98.176 21.736C98.176 22.36 98.256 23.016 98.448 23.48C98.656 23.944 98.96 24.168 99.424 24.168C99.888 24.168 100.224 23.864 100.224 23.384C100.224 22.664 100.112 22.12 100.112 21.368C100.112 20.36 100.352 19.4 100.848 18.424C101.392 17.32 102.176 16.744 102.784 16.744C103.728 16.744 104.32 17.944 104.32 20.76C104.32 23.416 103.632 26.344 99.424 28.024L99.552 28.312C104.416 27.496 106.304 24.68 106.304 21.048C106.304 17.592 105.088 15.912 103.264 15.912C102.176 15.912 101.184 16.776 100.352 18.264C100.208 18.536 100.096 18.52 100.112 18.216C100.144 17.896 100.256 17.416 100.432 16.904C100.576 16.536 100.72 16.232 100.72 15.8C100.72 15.256 100 14.424 99.2 14.056C98.88 13.912 98.4 13.816 98.032 13.8L97.936 13.944C98.608 14.728 98.88 15.384 98.88 16.456ZM114.752 24.68C116.56 24.68 117.184 24.184 117.184 23.48C117.184 23.128 117.056 22.904 116.64 22.696L116.576 20.648H116.4C116.192 21.448 115.968 22.36 115.824 22.616C115.728 22.744 115.632 22.776 115.504 22.792H114.912H114.304C114.016 22.792 113.968 22.712 113.968 22.472V18.856L117.472 18.2C117.696 18.152 117.856 18.04 117.856 17.864C117.12 17.336 115.888 16.584 115.888 16.584L115.216 18.152L113.968 18.392V14.408C114.336 14.344 114.48 14.184 114.496 13.976L112.224 13.736V18.728L110.304 19.096L110.512 19.512L112.224 19.192V23.08C112.224 24.296 112.48 24.68 113.776 24.68H114.752ZM123.984 14.184L122.944 15.288H115.952L116.08 15.736H118.784C118.528 21.896 117.952 26.024 113.264 28.216L113.424 28.44C119.568 26.536 120.352 22.584 120.736 15.736H123.136C122.976 21.576 122.672 24.984 121.984 25.592C121.808 25.768 121.632 25.832 121.344 25.832C120.928 25.832 119.872 25.752 119.136 25.688V25.896C119.888 26.072 120.464 26.328 120.752 26.632C120.992 26.904 121.088 27.368 121.072 28.024C122.144 28.024 122.88 27.752 123.504 27.112C124.48 26.072 124.816 22.968 125.008 16.072C125.392 16.024 125.616 15.896 125.744 15.752L123.984 14.184ZM130.352 22.296C130.32 23.352 130.336 24.344 130.32 24.904C130.304 25.208 130.176 25.256 129.952 25.064C129.792 24.904 129.424 24.552 129.088 24.232L130.352 22.296ZM141.728 23.848C140.8 24.584 140 24.952 139.04 24.952C138.336 24.952 138.048 24.632 138.048 23.8C138.048 22.136 138.656 20.504 138.656 19.016C138.656 17.416 138.048 16.504 136.48 16.504C135.232 16.504 133.824 17.368 132.704 18.296C132.72 18.248 132.736 18.184 132.736 18.12C132.736 17.976 132.448 17.656 132.16 17.416C132.256 17.112 132.336 16.856 132.416 16.664C132.624 16.152 132.832 15.912 132.832 15.544C132.832 14.952 131.744 14.008 130.864 14.008C130.4 14.008 130 14.12 129.584 14.312V14.584C130.016 14.696 130.336 14.84 130.576 14.968C130.864 15.128 130.912 15.224 130.912 15.576C130.912 15.928 130.832 16.664 130.736 17.544C129.888 17.976 128.512 18.632 128.016 18.632C127.648 18.632 127.392 18.328 127.12 17.944L126.896 18.008C126.88 18.28 126.832 18.664 126.912 18.92C127.12 19.592 127.984 20.424 128.704 20.424C129.04 20.424 129.2 19.96 129.52 19.72C129.744 19.576 130.16 19.336 130.576 19.096C130.544 19.4 130.512 19.704 130.496 20.008C129.376 21.656 127.92 23.416 127.184 24.168C126.864 24.504 126.72 24.856 126.72 25.32C126.72 25.88 127.072 26.216 127.424 26.2C127.824 26.2 128.064 25.816 128.352 25.368L128.848 24.6C129.152 25.048 129.408 25.544 129.552 25.912C129.728 26.376 129.824 26.792 129.904 27.224C129.968 27.672 130.176 27.976 130.736 27.976C131.344 27.976 131.824 27.224 131.824 26.28C131.824 25.832 131.712 25.4 131.648 24.76C131.536 23.768 131.408 22.152 131.504 20.856C131.52 20.696 131.536 20.52 131.552 20.328C132.864 18.632 134.56 17.288 135.92 17.288C136.704 17.288 136.928 17.816 136.928 18.792C136.928 20.552 136.32 22.264 136.32 24.184C136.32 25.88 137.088 26.6 138.384 26.6C140.144 26.6 141.328 25.224 141.904 24.024L141.728 23.848Z" fill="white"/>
<path d="M23 10H25.9219L28.8438 14.1237M28.8438 14.1237H45L42.25 22.0412H28.8438M28.8438 14.1237V22.0412M28.8438 22.0412V26H40.875" stroke="white" stroke-width="2" stroke-linecap="round" stroke-linejoin="round"/>
<path d="M29.5 32C30.3284 32 31 31.3284 31 30.5C31 29.6716 30.3284 29 29.5 29C28.6716 29 28 29.6716 28 30.5C28 31.3284 28.6716 32 29.5 32Z" fill="white"/>
<path d="M39.5 32C40.3284 32 41 31.3284 41 30.5C41 29.6716 40.3284 29 39.5 29C38.6716 29 38 29.6716 38 30.5C38 31.3284 38.6716 32 39.5 32Z" fill="white"/>
</svg>
