<svg width="351" height="52" viewBox="0 0 351 52" fill="none" xmlns="http://www.w3.org/2000/svg">
<rect width="351" height="52" rx="4" fill="black"/>
<path d="M156.184 24.056C156.312 23.56 156.408 23.144 156.488 22.84C156.664 22.168 157.112 22.168 157.112 21.672C157.112 21.144 155.672 20.296 154.776 20.296C154.344 20.296 153.8 20.552 153.432 20.728V20.968C153.768 21.08 154.136 21.224 154.424 21.416C154.632 21.56 154.68 21.704 154.68 22.04C154.664 22.488 154.472 23.432 154.264 24.28C152.616 24.472 151.096 24.632 150.696 24.632C150.152 24.632 149.848 24.216 149.496 23.736L149.272 23.8C149.192 24.264 149.16 24.632 149.32 25.016C149.512 25.56 150.312 26.488 150.824 26.488C151.208 26.488 151.512 26.232 152.008 26.072C152.44 25.944 153.192 25.784 153.864 25.656C153.08 28.104 151.672 31.032 148.248 33.592L148.456 33.88C153.608 31.64 155.176 27.432 155.816 25.32C156.76 25.176 157.8 25.032 158.456 25.032C158.568 25.032 158.632 25.096 158.632 25.24C158.632 26.264 158.056 29.576 157.144 30.776C156.952 31.032 156.792 31.096 156.376 31.048C155.992 31.016 155.208 30.808 154.28 30.472L154.136 30.712C155.144 31.608 155.512 31.96 155.656 32.504C155.8 33.032 155.928 33.24 156.44 33.24C157.384 33.24 158.344 32.392 158.808 31.496C159.672 29.752 160.12 27.4 160.328 25.976C160.408 25.368 161 25.368 161 24.936C161 24.408 159.608 23.32 159.112 23.32C158.776 23.32 158.536 23.784 158.088 23.832L156.184 24.056ZM164.36 25.72C164.312 26.104 164.264 26.568 164.408 26.936C164.696 27.72 165.688 28.76 166.312 28.76C166.92 28.76 167.16 28.376 168.312 28.264C169.544 28.12 173.128 27.896 174.344 27.896C175.464 27.896 176.024 27.944 176.664 27.944C177.336 27.944 177.72 27.72 177.72 27.256C177.72 26.568 176.888 26.072 175.928 26.072C175.544 26.072 174.824 26.2 173.752 26.296C172.776 26.376 167.944 26.696 166.232 26.696C165.384 26.696 165.112 26.264 164.632 25.624L164.36 25.72ZM183.624 21.08C184.28 21.192 184.776 21.368 184.872 21.896C185 22.616 185.048 24.632 185.048 25.96C185.048 26.92 185.032 29.064 184.904 30.264C184.824 30.968 184.68 31.336 184.68 31.768C184.68 32.952 185.128 33.816 185.96 33.816C186.6 33.816 186.776 33.48 186.776 32.648C186.776 32.424 186.744 31.88 186.712 31.064C186.664 29.688 186.648 27.64 186.696 25.944C187.544 26.344 188.12 26.728 188.616 27.144C189.848 28.28 189.912 29.16 190.936 29.16C191.512 29.16 191.864 28.696 191.864 28.184C191.864 27.336 191.4 26.856 190.696 26.44C189.8 25.912 188.312 25.48 186.712 25.304C186.728 24.376 186.76 23.512 186.856 22.888C186.936 22.296 187.288 22.136 187.288 21.672C187.288 21.144 185.864 20.36 185.064 20.36C184.584 20.36 184.056 20.616 183.608 20.824L183.624 21.08ZM200.2 26.952C199.784 27.752 198.968 29.288 198.568 29.864C198.408 30.104 198.264 30.088 198.168 29.848C198.072 29.656 197.992 29.336 197.992 28.84C197.992 27.48 198.6 26.008 199.208 24.952C199.592 24.216 199.816 23.896 199.816 23.448C199.816 22.568 198.952 21.688 198.456 21.368C198.072 21.112 197.72 20.968 197.192 20.84L197.032 21.016C197.448 21.48 197.864 22.168 197.864 22.904C197.848 23.608 197.688 24.264 197.496 25.032C197.24 25.992 196.792 27.672 196.792 29.144C196.792 30.936 197.176 32.184 197.768 32.984C198.088 33.416 198.472 33.704 198.856 33.704C199.384 33.704 199.672 33.368 199.672 32.792C199.672 32.312 199.32 31.768 199.32 31.192C199.32 30.936 199.4 30.6 199.528 29.96C199.672 29.368 200.232 27.976 200.552 27.112L200.2 26.952ZM201.768 28.36C201.736 28.744 201.72 29.224 201.784 29.704C202.024 31.56 203.272 32.856 206.296 32.856C208.232 32.856 209.848 32.648 209.848 31.656C209.848 31.048 209.128 30.744 208.44 30.744C208.104 30.744 207.448 31.048 205.832 31.048C203.832 31.048 203.08 30.632 202.456 29.528C202.264 29.192 202.136 28.712 202.04 28.328L201.768 28.36ZM202.28 24.072C203.624 23.704 204.392 23.656 204.872 23.656C206.04 23.656 205.96 23.816 205.8 24.008C205.528 24.312 204.728 24.984 204.024 25.576L204.232 25.816C205.096 25.288 206.152 24.792 206.872 24.552C207.528 24.36 208.104 24.344 208.584 24.264C208.984 24.184 209.192 23.992 209.192 23.592C209.192 23.304 209.064 22.984 208.568 22.712C208.024 22.424 207.368 22.296 206.296 22.296C205.096 22.296 203.384 22.696 202.168 23.8L202.28 24.072ZM223.08 22.184V24.76H218.888V22.184H223.08ZM223.448 27.416V30.136H218.888V27.416H223.448ZM218.888 30.6H223.448V31.544H223.768C224.36 31.544 225.272 31.224 225.288 31.128V27.736C225.608 27.656 225.832 27.528 225.944 27.4L224.136 26.056L223.288 26.984H218.888V25.224H223.08V25.864H223.4C223.976 25.864 224.92 25.544 224.936 25.448V22.488C225.24 22.424 225.48 22.28 225.576 22.152L223.784 20.792L222.92 21.72H220.6C221.064 21.272 221.688 20.616 222.072 20.168C222.424 20.136 222.648 20.008 222.696 19.736L219.88 19.336C219.832 20.04 219.752 21.064 219.688 21.72H218.968L217.064 20.936V31.912H217.352C218.152 31.912 218.888 31.48 218.888 31.272V30.6ZM212.216 19.992C212.904 20.76 213.624 21.944 213.816 22.984C215.608 24.248 217.144 20.712 212.344 19.896L212.216 19.992ZM215.336 27.08C215.784 27.016 216.024 26.904 216.152 26.76L214.216 25.208L213.32 26.392H211.496L211.592 26.856H213.576V31.544C212.792 31.864 212.008 32.152 211.464 32.328L212.488 34.424C212.648 34.344 212.744 34.248 212.744 34.024C213.4 33.384 214.456 32.216 215.144 31.32C216.232 33.576 217.432 34.04 220.488 34.04H225.432C225.512 33.192 225.928 32.632 226.664 32.456V32.264C224.696 32.328 222.248 32.328 220.456 32.328C217.528 32.328 216.44 32.184 215.336 31.064V27.08ZM232.984 22.952H231.656C231.688 22.024 231.688 21.096 231.704 20.2C232.104 20.136 232.248 19.992 232.296 19.752L229.816 19.528C229.816 20.664 229.832 21.8 229.816 22.952H227.672L227.816 23.4H229.8C229.736 27.176 229.336 30.952 227.256 34.2L227.48 34.424C230.856 31.416 231.48 27.384 231.64 23.4H233.144C233.032 28.728 232.856 31.384 232.312 31.896C232.152 32.024 232.024 32.088 231.752 32.088C231.432 32.088 230.6 32.024 230.088 31.976L230.072 32.2C230.696 32.344 231.128 32.552 231.368 32.856C231.576 33.096 231.624 33.544 231.624 34.152C232.488 34.152 233.192 33.912 233.736 33.352C234.6 32.456 234.824 30.136 234.952 23.72C235.32 23.656 235.528 23.544 235.64 23.4L233.96 21.944L232.984 22.952ZM237.912 31.72V22.584H239.864V31.72H237.912ZM240.616 21.112L239.704 22.136H237.976L236.088 21.32V34.088H236.408C237.192 34.088 237.912 33.656 237.912 33.432V32.184H239.864V33.8H240.168C240.888 33.8 241.736 33.304 241.768 33.128V22.92C242.088 22.84 242.312 22.712 242.424 22.568L240.616 21.112Z" fill="white"/>
<path d="M108 16H110.922L113.844 20.1237M113.844 20.1237H130L127.25 28.0412H113.844M113.844 20.1237V28.0412M113.844 28.0412V32H125.875" stroke="white" stroke-width="2" stroke-linecap="round" stroke-linejoin="round"/>
<path d="M114.5 38C115.328 38 116 37.3284 116 36.5C116 35.6716 115.328 35 114.5 35C113.672 35 113 35.6716 113 36.5C113 37.3284 113.672 38 114.5 38Z" fill="white"/>
<path d="M124.5 38C125.328 38 126 37.3284 126 36.5C126 35.6716 125.328 35 124.5 35C123.672 35 123 35.6716 123 36.5C123 37.3284 123.672 38 124.5 38Z" fill="white"/>
</svg>
