<svg width="208" height="56" viewBox="0 0 208 56" fill="none" xmlns="http://www.w3.org/2000/svg">
<rect width="208" height="56" rx="4" fill="black"/>
<path d="M110.278 20.9046L109.98 21.7554C109.827 22.1692 109.597 22.6289 109.29 23.1346L108.808 23.8703C108.486 24.2381 108.072 24.8668 107.567 25.7552C107.383 26.154 107.099 26.698 106.717 27.3869L105.154 29.4099C104.556 30.1765 104.051 30.7431 103.638 31.1109C103.56 31.1575 103.376 31.2417 103.086 31.364C103.054 31.3796 102.979 31.4256 102.856 31.502C102.733 31.5939 102.633 31.64 102.556 31.64C102.419 31.64 102.327 31.5253 102.281 31.2947C102.235 31.1108 102.259 30.9348 102.35 30.7664C102.534 30.4297 102.764 30.0619 103.039 29.663C103.085 29.5711 103.384 29.0271 103.935 28.0306C104.043 27.7703 104.334 27.0347 104.809 25.8239C105.468 24.1538 105.797 23.2421 105.797 23.0887C105.797 22.9508 105.751 22.8206 105.659 22.6975C105.582 22.5603 105.475 22.491 105.338 22.491C104.341 22.491 103.629 22.537 103.2 22.6289C102.985 22.66 102.618 22.6671 102.097 22.6516C101.576 22.6367 101.2 22.6523 100.971 22.6975C100.787 22.6671 100.442 22.6594 99.9372 22.6749C99.6304 22.7364 99.3079 22.7059 98.9719 22.583L97.9601 22.2152C97.347 21.9394 96.6271 21.6945 95.7998 21.4795C95.2786 21.3721 94.7653 21.2037 94.2603 20.9738C93.8926 20.7135 93.7087 20.4377 93.7087 20.1464C93.7087 19.8705 93.7852 19.6406 93.9385 19.4567C94.0305 19.3803 94.1755 19.2269 94.3749 18.997C94.7271 18.6603 94.9802 18.4537 95.1343 18.376C95.2715 18.2841 95.5622 18.2154 96.0069 18.1694C96.3442 18.0937 96.8802 18.0542 97.6163 18.0542C98.2896 18.0542 98.8257 18.0937 99.2244 18.1694C99.4846 18.1694 99.8446 18.2076 100.304 18.2841C100.627 18.3611 101.17 18.3993 101.936 18.3993C102.074 18.3993 102.97 18.3695 104.625 18.3073C106.248 18.2464 107.207 18.2154 107.498 18.2154C107.804 18.2154 108.218 18.3611 108.739 18.6519C108.876 18.8208 109.222 19.1122 109.773 19.5253C110.109 19.8012 110.278 20.2609 110.278 20.9046M128.806 28.7293C128.806 28.8368 128.552 29.1657 128.047 29.7174C127.787 29.9168 127.303 30.124 126.6 30.3384C125.972 30.5534 125.389 30.7218 124.852 30.8442C124.27 30.9205 123.42 30.9976 122.302 31.074C121.107 31.3194 120.195 31.4418 119.566 31.4418C119.428 31.4418 119.276 31.4035 119.107 31.3265C118.924 31.2656 118.816 31.2346 118.786 31.2346C118.617 31.2197 118.295 31.1433 117.82 31.0047C117.774 30.9898 117.498 30.7295 116.993 30.2225C116.855 30.1312 116.687 29.9706 116.487 29.7407C116.379 29.5724 116.304 29.3497 116.257 29.0738C116.195 28.7675 116.158 28.5991 116.142 28.568C116.004 28.0934 115.935 27.6033 115.935 27.0969C115.935 26.9745 115.966 26.722 116.028 26.3386C116.058 25.9404 116.082 25.5804 116.097 25.2579C116.097 25.0287 116.119 24.6375 116.166 24.0859C116.195 23.5037 116.242 22.9902 116.304 22.5454C116.35 22.0857 116.373 21.7406 116.373 21.5114C116.373 21.3585 116.35 21.0515 116.304 20.5918C116.242 19.9792 116.388 19.1899 116.741 18.2238C116.832 17.8722 116.931 17.6028 117.038 17.4196C117.038 17.2661 117.084 16.899 117.177 16.3162C117.376 15.4583 117.728 15.0282 118.234 15.0282C118.325 15.0282 118.624 15.2284 119.13 15.6266C119.88 16.2243 120.211 16.8828 120.118 17.6028C120.134 17.7414 120.118 17.9797 120.072 18.3151C120.027 18.7147 120.004 18.9594 120.004 19.0513C120.004 19.5578 119.996 19.9333 119.98 20.1781C119.95 20.3775 119.935 20.4921 119.935 20.5226C119.935 20.6145 119.903 20.7524 119.842 20.9363C119.812 21.2121 119.796 21.4421 119.796 21.6259C119.765 21.9328 119.735 22.4463 119.704 23.1665C119.689 23.3199 119.651 23.5037 119.59 23.7181L119.383 24.8441C119.383 25.0591 119.36 25.3959 119.315 25.8556C119.283 26.3153 119.268 26.4921 119.268 26.3846C119.268 26.8288 119.307 27.2044 119.383 27.5106C119.475 27.7101 119.627 28.0015 119.842 28.3841C119.858 28.4612 120.01 28.5305 120.302 28.5913C120.593 28.6529 120.8 28.6833 120.923 28.6833C121.029 28.6833 121.222 28.6684 121.498 28.6373C121.773 28.6069 121.971 28.5913 122.094 28.5913C122.646 28.6833 123.19 28.7293 123.727 28.7293C123.879 28.7293 124.087 28.7066 124.347 28.66C124.608 28.6147 124.814 28.5913 124.968 28.5913C125.105 28.5913 125.557 28.5532 126.324 28.4761L127.68 28.3155C127.879 28.423 128.092 28.4761 128.323 28.4761C128.644 28.4761 128.806 28.561 128.806 28.7293M146.584 23.6132C146.584 23.7971 146.415 24.203 146.079 24.8311C145.971 24.9542 145.895 25.0921 145.849 25.2449C145.787 25.4139 145.673 25.6134 145.504 25.8426C145.366 25.9656 145.159 26.1496 144.883 26.3943C144.746 26.5329 144.546 26.6857 144.286 26.8541C144.01 27.038 143.864 27.1376 143.85 27.1533C143.558 27.567 143.045 28.0422 142.309 28.5784C141.942 28.7312 141.428 28.9922 140.77 29.36C140.693 29.4519 140.578 29.5672 140.425 29.7044C140.118 29.8735 139.882 30.0418 139.713 30.2102C139.544 30.3792 139.322 30.5547 139.046 30.7392C138.893 30.8622 138.456 31.0461 137.736 31.2909C137.43 31.4593 137.223 31.5434 137.116 31.5434C137.084 31.5434 137.009 31.5286 136.886 31.4974C136.778 31.4663 136.679 31.4515 136.587 31.4515L136.495 31.4748C136.449 31.5058 136.365 31.5208 136.242 31.5208C135.982 31.5208 135.438 31.3446 134.611 30.9917C134.243 30.8234 134.059 30.6091 134.059 30.3481C134.059 30.2717 134.12 30.0567 134.243 29.7045C134.274 29.5672 134.327 29.406 134.404 29.2221C134.48 29.1612 134.595 29.0997 134.749 29.0382C134.794 28.9306 134.932 28.8082 135.162 28.6703C135.377 28.548 135.806 28.3259 136.449 28.0034C136.97 27.7126 137.759 27.2685 138.816 26.6701C139.291 26.3794 140.011 25.9352 140.977 25.3369C141.313 25.1996 142.202 24.8318 143.642 24.2335C143.811 24.172 144.087 24.0496 144.47 23.8657C144.546 23.8352 144.769 23.7666 145.137 23.6592C145.366 23.5672 145.695 23.4603 146.124 23.3374C146.431 23.2765 146.584 23.3684 146.584 23.6132M141.942 19.4755C141.942 20.1036 141.705 20.4176 141.23 20.4176C140.203 20.4176 139.13 20.1036 138.012 19.4755C137.813 19.3991 137.36 19.0921 136.656 18.556C136.502 18.4641 136.311 18.3423 136.082 18.1882C135.515 18.0043 134.917 17.5445 134.289 16.809C134.197 16.717 134.151 16.5869 134.151 16.4179C134.151 16.265 134.235 16.0811 134.404 15.8662C134.556 15.6823 134.71 15.5761 134.863 15.5443C135.384 15.422 135.905 15.3598 136.426 15.3598C136.548 15.3598 136.962 15.4524 137.667 15.6357C137.912 15.7594 138.325 15.951 138.908 16.212C139.168 16.2573 139.659 16.3803 140.379 16.5784C140.486 16.6711 140.678 16.7863 140.954 16.9236C141.536 17.1386 141.827 17.4293 141.827 17.7971C141.827 17.8126 141.812 17.8735 141.781 17.981C141.75 18.1196 141.735 18.2038 141.735 18.2335C141.735 18.4181 141.781 18.6182 141.873 18.8318C141.918 19.0611 141.942 19.2761 141.942 19.4756M168 24.5359C168 24.8733 167.785 25.1109 167.356 25.2482C167.157 25.3402 166.842 25.5014 166.413 25.7312C165.923 25.9916 165.425 26.1605 164.92 26.2369C163.74 26.4053 163.211 26.4895 163.334 26.4895C163.165 26.4895 162.897 26.4746 162.53 26.4435C162.162 26.4131 161.893 26.3975 161.725 26.3975C161.449 26.6734 161.058 27.2102 160.553 28.0067C160.308 28.5434 159.963 29.1949 159.519 29.9609C159.167 30.4362 158.761 30.8571 158.301 31.2249C157.366 31.976 156.692 32.3515 156.279 32.3515C156.064 32.3515 155.995 32.0524 156.071 31.4548C156.102 31.2559 156.248 30.8882 156.508 30.3513C156.876 29.6624 157.113 29.2104 157.221 28.9955C157.42 28.4593 157.781 27.6239 158.301 26.4895C157.781 26.4131 156.685 26.3062 155.014 26.1676C154.263 26.1224 153.857 26.0912 153.797 26.0757C153.321 25.9533 152.954 25.7468 152.693 25.4554C152.371 25.1945 152.211 24.9341 152.211 24.6738C152.211 24.4899 152.348 24.306 152.624 24.1222C152.915 23.9227 153.16 23.8158 153.36 23.8003C153.696 23.6928 154.202 23.5549 154.876 23.3866C156.363 23.0498 157.198 22.8808 157.382 22.8808C158.316 22.8808 159.013 22.9424 159.473 23.0647C159.595 22.8504 159.749 22.4749 159.932 21.938C159.993 21.6013 160.223 21.218 160.622 20.7886C160.852 20.5283 161.127 20.3982 161.449 20.3982C161.786 20.3982 162.023 20.5517 162.162 20.8573C162.315 21.1953 162.522 21.6168 162.782 22.122C162.905 22.3058 162.966 22.6509 162.966 23.1566C163.962 23.1722 164.629 23.1949 164.966 23.2253C165.793 23.3173 166.49 23.4403 167.057 23.5924C167.21 23.6242 167.409 23.7544 167.654 23.9843C167.884 24.2141 168 24.398 168 24.5359ZM166.161 15.4789C166.161 15.8312 166.007 16.1148 165.701 16.3285C165.364 16.5286 165.042 16.7203 164.736 16.9048C164.46 17.134 163.916 17.4785 163.104 17.9383C162.69 18.0769 162.117 18.2841 161.381 18.5599C160.768 18.8189 160.101 18.9808 159.381 19.0417L158.324 19.1796C158.124 19.1796 157.818 19.2411 157.404 19.3635C157.006 19.471 156.692 19.5248 156.462 19.5248C156.033 19.5248 155.55 19.425 155.014 19.2255C153.865 18.8273 153.291 18.4673 153.291 18.1455C153.291 17.6248 153.712 17.103 154.555 16.5824C154.846 16.3829 156.233 15.8927 158.715 15.1111C159.005 15.0814 159.541 15.0114 160.323 14.9039C161.533 14.7667 162.085 14.6967 161.978 14.6967C163.296 14.6967 164.276 14.7589 164.92 14.8813C165.747 15.0963 166.161 15.2951 166.161 15.4789M46.9226 22.1427C46.9265 22.5978 46.9168 23.1353 46.8922 23.753C47.1182 25.2106 47.4328 26.6359 47.8342 28.028C47.8633 28.298 47.693 28.5111 47.3227 28.6652C46.4669 28.7578 45.7321 28.1879 45.1197 26.9544C44.6425 25.9119 44.2315 24.543 43.8883 22.8478L43.6184 22.8769C43.1697 22.7436 42.6421 22.7092 42.0342 22.7752C41.5766 22.7572 41.0412 22.5525 40.4294 22.1634C39.5632 21.5275 39.0868 21.0211 39 20.6423C39.0065 20.2765 39.3567 19.8401 40.0545 19.3311C41.3079 18.2841 42.1158 17.6494 42.4803 17.4267C43.2552 16.796 44.2017 16.2832 45.3217 15.8868C45.8628 15.624 46.4546 15.4116 47.0994 15.2497C47.6069 15.1034 48.1203 15.0024 48.6382 14.9467C48.9638 15.0024 49.3723 15.1979 49.8649 15.532C50.2087 15.7678 50.5862 15.9891 50.9959 16.1958C51.4782 16.4398 51.743 16.7759 51.789 17.2033C51.8285 17.5639 51.5553 18.0949 50.9707 18.7969C50.5033 19.3265 49.9084 19.9385 49.1865 20.632C48.4368 21.2834 47.682 21.7872 46.9226 22.1426M53.6314 16.2171C52.369 16.1491 51.5585 15.918 51.1966 15.5243C50.682 15.1927 50.2022 14.652 49.7562 13.9022C49.7607 12.8992 50.322 12.2905 51.4388 12.0788C52.8895 12.0121 54.5326 11.9253 56.3672 11.8178C56.9771 10.9301 57.6238 9.94844 58.3049 8.87092C58.8163 8.33734 59.2863 8.04663 59.7142 8C60.8122 8.45259 61.4271 9.08009 61.5605 9.88619C61.6065 10.3149 61.5663 10.6833 61.4408 10.9942C61.4149 11.1788 61.3786 11.3652 61.3307 11.5523C63.0197 11.3691 64.8336 11.1729 66.7706 10.9631C67.0853 10.9281 67.4096 10.9735 67.7424 11.0965C68.077 11.2428 68.2654 11.507 68.3075 11.8903C68.3366 12.161 67.9799 12.5534 67.2381 13.0662C66.8839 13.5836 66.5246 13.9533 66.1614 14.1748C64.2802 15.1085 62.1231 15.7069 59.6902 15.9711C59.2157 16.0216 58.7839 16.0228 58.3915 15.975C56.8295 17.7621 55.6376 19.0663 54.8148 19.8847C53.7214 21.5767 52.595 22.5305 51.4329 22.7481C50.9597 22.7992 50.6982 22.5888 50.6464 22.1148C50.7098 21.8577 51.0296 21.2302 51.6051 20.2324C52.1463 18.9212 52.8222 17.5821 53.6314 16.2171M58.6965 19.7371C58.7625 19.2974 58.8215 18.7891 58.8726 18.2134C59.094 17.9395 59.43 17.777 59.8799 17.7285C60.4282 17.7375 60.9132 17.9007 61.3352 18.2199C61.747 18.655 61.9664 18.9956 61.993 19.2423C62.0027 19.333 62.0007 19.4243 61.9891 19.5169C63.4877 19.469 64.7585 19.5247 65.8015 19.6853C67.5151 19.9326 68.4254 20.5516 68.5335 21.543C68.7381 23.4358 68.7697 24.8901 68.6306 25.9093C68.7205 26.7433 68.4298 27.4245 67.7585 27.9535C66.8826 28.504 65.8261 28.8465 64.5876 28.9812C63.5965 29.0886 62.6507 29.1909 61.7489 29.2887C61.756 29.3567 61.7651 29.4351 61.7748 29.5251C61.8648 30.3598 62.1665 30.8285 62.6792 30.9315C62.9692 31.0823 63.4851 31.2209 64.2284 31.3452C65.8144 31.2643 66.7661 31.2067 67.0813 31.1724C67.3377 31.2358 67.4821 31.4029 67.5119 31.673C67.5701 32.2136 67.2089 32.6636 66.4263 33.0217C65.9679 33.4128 65.2765 33.6589 64.3526 33.7599C61.633 33.8945 59.8695 33.0832 59.0636 31.3239C58.9969 30.7158 58.936 30.0496 58.881 29.3263C58.0925 29.4118 57.3441 29.4473 56.6365 29.4331C56.3892 29.8929 55.6694 30.1875 54.4755 30.317C53.575 30.4141 52.9587 29.5691 52.6286 27.7813C52.4156 24.9775 52.4486 23.3898 52.727 23.0181C52.9484 22.333 53.456 21.8558 54.2471 21.5877C54.8077 21.7087 55.4745 22.1834 56.2475 23.0116C56.4727 23.1936 56.6553 23.5037 56.7939 23.9447C57.2347 23.8054 57.8264 23.696 58.5696 23.6151C58.5405 23.1398 58.5418 22.7293 58.5728 22.3841C57.9326 22.3621 57.3998 22.2831 56.9745 22.1471C56.5271 22.0131 56.2779 21.7101 56.2268 21.236C56.1478 20.5147 56.9713 20.0155 58.6965 19.7371M58.7729 27.6964C58.7341 27.1311 58.7094 26.5866 58.6984 26.0634C58.1119 26.1269 57.6115 26.1359 57.1965 26.0893C57.2289 26.1774 57.2503 26.2661 57.2606 26.3561C57.3065 26.7841 57.2988 27.2413 57.2379 27.7262C57.7332 27.6725 58.2447 27.6628 58.7729 27.6964M61.7832 22.0358C61.7068 22.3861 61.6201 22.851 61.5243 23.4318L61.5347 23.5329C61.5806 23.5277 61.6363 23.5218 61.7035 23.5141C62.3315 23.6287 62.6766 23.968 62.7374 24.5314C62.7841 24.9594 62.384 25.2643 61.5372 25.4476C61.5631 26.1062 61.5929 26.7983 61.6265 27.5242C62.4371 27.4362 63.2819 27.3441 64.1597 27.249C65.0958 27.0567 65.6856 26.7077 65.9271 26.2027C66.0442 24.7541 66.0326 23.3878 65.8928 22.1025C65.6759 21.7846 65.2072 21.6641 64.4867 21.7424C63.5169 21.8473 62.6157 21.9451 61.7832 22.0358M63.4807 15.9361C64.3812 15.8376 65.5017 16.1847 66.8412 16.9734C67.585 17.3257 68.1644 17.6274 68.5801 17.8786C68.9704 18.1098 69.1737 18.3047 69.1906 18.4621C69.1866 18.8512 68.802 19.0857 68.0369 19.1692C66.9324 19.2889 65.8294 18.9975 64.7281 18.297C63.6625 17.933 63.0365 17.3063 62.8488 16.4139C62.9097 16.1342 63.1207 15.975 63.4807 15.9361ZM89.9552 27.3357C89.9552 27.3843 89.8465 27.747 89.6289 28.4236C89.4962 28.7622 89.3085 29.1488 89.067 29.584C88.898 29.8741 88.6443 30.1279 88.3064 30.3455C87.9554 30.563 87.7075 30.6718 87.5631 30.6718C87.3812 30.6718 87.2906 30.5993 87.2906 30.4543C87.2906 30.3578 87.3573 30.1343 87.49 29.7834C87.659 29.3606 87.7496 29.1191 87.7619 29.0582C87.9671 28.3452 88.0345 27.5838 87.9613 26.7737C87.8648 25.3718 87.4719 24.2716 86.7831 23.4739C86.2516 22.8821 85.6527 22.4404 84.9885 22.1503C84.4926 21.9574 84.046 21.8305 83.6471 21.7689C83.5261 21.758 83.3694 21.7689 83.1759 21.8059C82.9946 21.8422 82.8683 21.8602 82.7951 21.8602C82.6625 21.8602 82.4443 21.8363 82.1426 21.7878C81.8403 21.7275 81.6409 21.6971 81.5444 21.6971C81.0978 21.6971 80.5954 21.7942 80.04 21.9872C79.4236 22.2171 78.964 22.3926 78.6623 22.513C78.2033 22.7429 77.8227 22.9838 77.5203 23.2383C76.8438 23.8068 76.4386 24.3565 76.3059 24.8881C76.0884 25.8303 75.9796 26.5199 75.9796 26.955C75.9796 27.2574 76.076 27.6621 76.2696 28.1698C76.4632 28.6658 76.6561 28.9617 76.8497 29.0582C76.9591 29.0944 77.2238 29.1009 77.6479 29.0763C77.877 29.0523 78.0221 28.998 78.0823 28.9131C78.3367 28.623 78.7232 28.2125 79.2424 27.6802C79.4476 27.475 79.581 27.2937 79.6411 27.1364C79.6897 27.0399 79.7499 26.7918 79.8225 26.393C79.9066 25.9578 80.0885 25.5227 80.3662 25.0875C80.5598 24.7975 80.8258 24.6525 81.1638 24.6525C81.4059 24.6525 81.569 24.7677 81.6539 24.9969C81.7258 25.2268 81.8099 25.4385 81.907 25.6315C82.0034 25.8374 82.0947 26.0912 82.1795 26.393C82.2637 26.6831 82.3058 26.889 82.3058 27.0094C82.3058 27.2154 82.2999 27.3785 82.2883 27.4989C82.2883 27.6323 82.2209 27.8978 82.0883 28.2967C82.0034 28.478 81.8468 28.7564 81.617 29.1307C81.5081 29.3113 81.2726 29.5658 80.91 29.8915C80.8129 30.0256 80.62 30.1764 80.33 30.3455C80.1973 30.394 79.9856 30.4789 79.6956 30.5993C79.5266 30.6239 79.2547 30.6964 78.8798 30.8169C78.481 30.9257 78.1547 30.98 77.901 30.98C77.7437 30.98 77.5508 30.9437 77.3209 30.8713C77.0678 30.8111 76.783 30.6783 76.469 30.4717C76.1065 30.2309 75.8649 30.0916 75.7439 30.0554C75.4779 29.935 75.2733 29.7414 75.1276 29.4752C75.1276 29.4635 75.0428 29.2032 74.8739 28.6956C74.7651 28.4541 74.6984 28.0675 74.6744 27.5352C74.6628 27.2814 74.602 26.8346 74.4932 26.1935C74.4453 25.9643 74.4207 25.8251 74.4207 25.7765C74.4207 25.3776 74.5236 24.949 74.7289 24.4892C75.0428 23.7886 75.4597 23.2084 75.9796 22.7487C76.2819 22.4469 76.7525 21.9872 77.3935 21.3707C77.8162 21.0082 78.1852 20.7906 78.4999 20.7181C78.6805 20.6456 78.922 20.573 79.2242 20.5005C79.5512 20.428 79.792 20.3678 79.9493 20.3192C80.4568 20.1864 80.8498 20.1198 81.1282 20.1198C82.0462 20.1198 83.0315 20.2466 84.0828 20.5005C84.6014 20.6338 84.9581 20.7485 85.1516 20.845C85.2241 20.9175 85.4416 21.0263 85.8042 21.1713C85.9007 21.1959 86.3117 21.407 87.0375 21.8059C87.7864 22.1931 88.4144 22.8031 88.922 23.6371C89.0554 23.9272 89.2787 24.2963 89.5927 24.7431C89.7746 24.9004 89.8645 25.1057 89.8645 25.3596C89.8645 25.4929 89.8762 25.8192 89.9008 26.3386C89.9377 26.8585 89.9552 27.1907 89.9552 27.3357" fill="white"/>
<path d="M75.3557 39.5322C75.1571 39.403 74.9317 39.2944 74.6871 39.2091C74.4418 39.1253 74.2054 39.0744 73.9827 39.0593L73.9724 39.0586L73.9621 39.0607C73.8975 39.0758 73.8508 39.1067 73.8226 39.1534C73.7917 39.205 73.7869 39.2717 73.8082 39.3507L73.8158 39.3789L73.8412 39.3933C74.0961 39.5397 74.3291 39.7301 74.5325 39.959C74.7393 40.1907 74.9139 40.4347 75.0533 40.6849C75.1234 40.8066 75.2128 40.8835 75.32 40.9145C75.3639 40.9275 75.4072 40.9337 75.4492 40.9337C75.5103 40.9337 75.5708 40.9207 75.6285 40.8939L75.6319 40.8918C75.7618 40.8231 75.8498 40.7021 75.8924 40.5323C75.9343 40.3646 75.8972 40.1762 75.7859 39.9762C75.7055 39.8161 75.5612 39.6669 75.3557 39.5322L75.3557 39.5322Z" fill="white"/>
<path d="M74.3407 40.7737C74.2013 40.6692 74.0638 40.5668 73.9284 40.4692C73.7924 40.3702 73.6797 40.2966 73.5945 40.2506C73.3842 40.1385 73.1973 40.1667 73.0502 40.3296C72.9801 40.399 72.8881 40.4609 72.7774 40.5131C72.6627 40.5668 72.5376 40.6128 72.4098 40.6492C72.2284 40.6864 72.0078 40.7221 71.7563 40.7544C71.5501 40.7812 71.3543 40.7977 71.1715 40.8032C71.1887 40.7798 71.2052 40.7599 71.221 40.7427C71.2608 40.6987 71.3131 40.6479 71.3763 40.5915C71.5873 40.4162 71.5886 40.155 71.3811 39.8141C71.2849 39.6546 71.1427 39.5144 70.9585 39.3975C70.7778 39.2814 70.5826 39.192 70.3785 39.1302C70.1731 39.0669 69.9834 39.0367 69.8082 39.0484L69.7889 39.0518C69.7223 39.0745 69.6762 39.124 69.6597 39.1907C69.6439 39.2505 69.6474 39.3075 69.668 39.3591L69.6783 39.3838L69.703 39.3955C69.8522 39.4677 69.9298 39.5611 69.9387 39.6814C69.9497 39.8175 69.9181 40.0162 69.8453 40.2712C69.7573 40.5943 69.6171 40.9517 69.4282 41.3339C69.2392 41.716 69.0186 42.1016 68.7733 42.4811C68.5293 42.8591 68.2696 43.2145 68.0016 43.5389C67.7343 43.8613 67.4718 44.1294 67.223 44.3349L67.2024 44.3514L67.1983 44.3775C67.1873 44.4421 67.2017 44.5026 67.2402 44.5507C67.2766 44.5975 67.3289 44.6284 67.3907 44.6387L67.4161 44.6428L67.4381 44.6298C67.8003 44.4188 68.1864 44.1452 68.5843 43.818C68.9836 43.4908 69.3759 43.1231 69.7504 42.7251C70.1167 42.3381 70.4411 41.9374 70.7152 41.5332C70.8671 41.5373 71.0396 41.5298 71.2265 41.5085L71.3536 41.494C71.513 41.4761 71.6697 41.459 71.8278 41.4404C71.9611 41.4177 72.0903 41.3992 72.2126 41.3847C72.3349 41.3696 72.4524 41.3586 72.561 41.351C72.6476 41.3497 72.697 41.3627 72.717 41.3916C72.7396 41.4239 72.7321 41.4913 72.6957 41.5827C72.4442 42.2501 72.0999 42.8962 71.6738 43.5039C71.2478 44.1122 70.764 44.6827 70.2356 45.2003C69.7058 45.7186 69.1554 46.1784 68.6008 46.5668C68.0408 46.9586 67.4986 47.2761 66.9901 47.5119L66.9688 47.5215L66.9578 47.5428C66.9227 47.6074 66.9145 47.6686 66.9324 47.7243C66.9502 47.7813 66.9963 47.8288 67.067 47.8645L67.0925 47.8769L67.1193 47.8686C68.0518 47.5827 68.9698 47.1806 69.8467 46.6747C70.7283 46.1653 71.5378 45.5378 72.2545 44.8098C72.9733 44.0799 73.5704 43.2365 74.0302 42.301C74.1504 42.0336 74.316 41.8521 74.5187 41.7641C74.6685 41.7105 74.7668 41.6102 74.8108 41.4638C74.8424 41.3593 74.8424 41.2026 74.6685 41.0513C74.5929 40.975 74.4851 40.8843 74.3408 40.7736L74.3407 40.7737Z" fill="white"/>
<path d="M75.9947 38.3638C75.7687 38.3026 75.5302 38.2655 75.287 38.2545C75.0361 38.2421 74.819 38.2517 74.6197 38.2834L74.5929 38.2937C74.5372 38.3287 74.5029 38.3734 74.4919 38.4263C74.4802 38.482 74.496 38.5425 74.5386 38.6057L74.553 38.6277L74.5792 38.6346C74.8554 38.7081 75.1193 38.8243 75.3639 38.9803C75.6099 39.1384 75.8394 39.3199 76.0449 39.5172C76.1404 39.6134 76.2497 39.6615 76.3699 39.6615C76.4888 39.6615 76.5898 39.6258 76.6702 39.5543L76.6709 39.5536C76.7767 39.456 76.8241 39.3123 76.8118 39.1247C76.7987 38.9405 76.7094 38.7762 76.5458 38.6374C76.4098 38.5177 76.2242 38.4263 75.9947 38.3638L75.9947 38.3638Z" fill="white"/>
<path d="M86.9256 41.5043C86.6912 41.3427 86.5071 41.2273 86.36 41.151C86.2776 41.109 86.1924 41.0857 86.1071 41.0809C86.0151 41.0692 85.9216 41.1166 85.8474 41.2018C85.7794 41.2823 85.6921 41.34 85.5794 41.3771C85.4633 41.4163 85.3142 41.4479 85.1389 41.4699C84.9293 41.4919 84.6668 41.5187 84.3514 41.5483C84.036 41.5785 83.7096 41.6101 83.3722 41.6445C83.0341 41.6782 82.7283 41.7084 82.4541 41.7345C82.1813 41.7607 81.9855 41.7778 81.8652 41.7847C81.5574 41.8067 81.3196 41.8012 81.1575 41.7696C81.0042 41.7387 80.8785 41.672 80.7768 41.5634C80.7232 41.5208 80.6572 41.505 80.583 41.5215C80.4724 41.5455 80.4449 41.6211 80.438 41.6747C80.438 41.8755 80.4998 42.0823 80.6221 42.2906C80.741 42.4955 80.897 42.6728 81.0839 42.8171C81.275 42.9649 81.4674 43.0399 81.6563 43.0399C81.7917 43.0399 81.9236 43.0199 82.048 42.9807C82.1696 42.9429 82.3167 42.8852 82.4857 42.8082C82.6527 42.7285 82.9001 42.6467 83.2217 42.5649C83.5399 42.4845 83.9034 42.413 84.3013 42.3525C84.6957 42.2934 85.0874 42.2556 85.4681 42.2404C85.5663 42.2301 85.6344 42.2446 85.6584 42.2776C85.6838 42.3106 85.6783 42.3793 85.6426 42.4735C85.3994 43.1615 85.0455 43.8503 84.5926 44.5191C84.1411 45.1858 83.6031 45.7969 82.9943 46.3351C82.3868 46.8726 81.7106 47.3063 80.9864 47.6239L80.9575 47.6363L80.9479 47.6658C80.8984 47.8129 80.9499 47.9311 81.0881 47.9896L81.1114 47.9999L81.1362 47.9923C82.024 47.7215 82.8513 47.3496 83.5962 46.887C84.3418 46.4238 85.0077 45.8718 85.576 45.247C86.1443 44.6215 86.6122 43.9307 86.9675 43.1897C87.0176 43.0742 87.0788 42.9594 87.1537 42.8385C87.2217 42.7292 87.3049 42.646 87.3963 42.5938C87.5385 42.5223 87.6175 42.4205 87.6313 42.2906C87.645 42.1628 87.6017 42.0514 87.5035 41.9621C87.3502 41.817 87.1613 41.6672 86.9256 41.5043L86.9256 41.5043Z" fill="white"/>
<path d="M81.5925 39.9123C81.699 40.0704 81.8351 40.2024 81.9958 40.3034C82.1587 40.4079 82.3401 40.4608 82.5346 40.4608C82.637 40.4608 82.7387 40.4512 82.8363 40.432C82.9222 40.4141 83.0362 40.3928 83.1771 40.3653L83.2128 40.3584C83.3564 40.3289 83.544 40.2986 83.7708 40.2697C83.9962 40.2402 84.247 40.2134 84.5164 40.1907C84.7748 40.1687 85.0242 40.1495 85.2647 40.1309L85.2867 40.1288C85.5382 40.1103 85.743 40.1007 85.912 40.1007C86.1464 40.1007 86.312 40.0299 86.4047 39.8889C86.5009 39.7412 86.4769 39.5721 86.3333 39.3858C86.1986 39.2098 85.9306 39.0703 85.5107 38.9596C85.2929 38.9101 85.1135 38.9205 84.9809 38.9878C84.7851 39.082 84.5363 39.1617 84.2429 39.2243C83.9481 39.2868 83.6533 39.3335 83.3654 39.3638C83.0775 39.394 82.8397 39.416 82.6542 39.4312C82.404 39.4456 82.1992 39.4463 82.046 39.4312C81.9038 39.4174 81.7856 39.3617 81.6832 39.26L81.6701 39.2469L81.6523 39.2421C81.576 39.2215 81.5121 39.2277 81.4605 39.2593C81.4104 39.2902 81.3774 39.3445 81.3623 39.4202L81.3582 39.438L81.3637 39.4552C81.4118 39.6044 81.4887 39.7583 81.5925 39.9123H81.5925Z" fill="white"/>
<path d="M95.1166 42.1058C95.2403 42.312 95.3942 42.4289 95.5722 42.4536C95.6072 42.4591 95.6423 42.4612 95.676 42.4612C95.8127 42.4612 95.9419 42.4213 96.0608 42.3416H96.0615C96.2161 42.2357 96.3295 42.0776 96.3982 41.8714C96.4669 41.6638 96.449 41.4335 96.3459 41.1875C96.2436 40.9345 96.0752 40.7304 95.8464 40.5798C95.6217 40.4334 95.3654 40.3207 95.0836 40.2444C94.8019 40.1688 94.5133 40.1186 94.226 40.0959C93.9436 40.0733 93.6839 40.0623 93.455 40.0623H93.4358L93.42 40.0712C93.2956 40.1434 93.2654 40.2602 93.3368 40.3908L93.3478 40.4108L93.3684 40.4211C93.7285 40.5902 94.0604 40.828 94.3559 41.1277C94.6548 41.4308 94.9111 41.76 95.1166 42.1058L95.1166 42.1058Z" fill="white"/>
<path d="M101.361 40.8047C101.311 40.7696 101.246 40.7586 101.165 40.7723L101.138 40.7778L101.122 40.7998C100.929 41.0597 100.664 41.3477 100.336 41.6577C100.004 41.9711 99.6265 42.2962 99.2149 42.622C98.7998 42.9513 98.3587 43.2702 97.9031 43.5699C97.4434 43.8724 96.983 44.1521 96.5336 44.4003C96.0862 44.6484 95.6588 44.8498 95.2657 44.999C95.1242 45.0505 94.9881 45.0979 94.8575 45.1385C94.7332 45.1777 94.6088 45.201 94.4906 45.2086C94.1965 45.2086 94.0041 45.0931 93.9024 44.8574L93.8873 44.8347C93.8405 44.7886 93.7904 44.7652 93.7375 44.7652L93.7299 44.7659C93.6667 44.7687 93.6055 44.8044 93.5395 44.8855C93.4743 45.0065 93.4351 45.1557 93.4186 45.3433C93.4104 45.5372 93.4818 45.7592 93.6316 46.0025C93.7773 46.241 94.0439 46.516 94.4246 46.8212C94.5978 46.9559 94.7428 47.0054 94.8624 47.0054C95.0025 47.0054 95.1084 46.9366 95.1833 46.859L95.1846 46.8569C95.3131 46.7146 95.5564 46.5455 95.9089 46.3544C96.8407 45.8506 97.6722 45.2849 98.3813 44.6738C99.0898 44.0621 99.7062 43.4338 100.214 42.8056C100.72 42.1808 101.133 41.5807 101.443 41.0225L101.454 41.0019L101.451 40.9792C101.441 40.8995 101.41 40.8411 101.361 40.8047L101.361 40.8047Z" fill="white"/>
<path d="M112.294 43.2056C112.103 43.0255 111.884 42.8557 111.642 42.6997C111.76 42.4962 111.87 42.2914 111.971 42.0893C112.084 41.8631 112.187 41.626 112.277 41.3854C112.343 41.217 112.409 41.0768 112.475 40.9682C112.536 40.8665 112.607 40.7915 112.686 40.7448C112.826 40.6658 112.906 40.5537 112.924 40.4107C112.94 40.2698 112.89 40.1303 112.771 39.9956C112.516 39.7096 112.232 39.5096 111.926 39.401C111.624 39.2945 111.342 39.236 111.088 39.2285L111.073 39.2278L111.059 39.2333C111.005 39.2553 110.963 39.2972 110.938 39.3536C110.91 39.4141 110.912 39.4801 110.944 39.5447L110.968 39.5715C111.109 39.6656 111.185 39.7763 111.202 39.9097C111.219 40.0526 111.176 40.2911 111.075 40.6197C110.933 41.1112 110.733 41.6129 110.479 42.114C110.128 41.9663 109.763 41.8398 109.394 41.7367C109.006 41.6288 108.629 41.5387 108.273 41.4707L108.253 41.4672L108.234 41.4748C108.179 41.4968 108.138 41.5373 108.112 41.5958C108.084 41.6563 108.086 41.7195 108.118 41.7848L108.129 41.8075L108.152 41.8178C108.478 41.9663 108.801 42.1463 109.11 42.3526C109.406 42.5498 109.694 42.7657 109.969 42.9959C109.598 43.5788 109.176 44.1397 108.714 44.6635C108.238 45.2031 107.742 45.6931 107.241 46.1207C106.743 46.5455 106.256 46.8974 105.793 47.1662L105.772 47.1785L105.763 47.2012C105.733 47.2755 105.732 47.3408 105.758 47.3964C105.786 47.4535 105.84 47.4947 105.92 47.5195L105.944 47.527L105.968 47.5174C106.473 47.3098 107.025 47.028 107.609 46.6795C108.186 46.3352 108.767 45.9145 109.336 45.4278C109.882 44.9618 110.392 44.4291 110.854 43.8441C111.223 44.2408 111.546 44.66 111.814 45.0903C111.898 45.2251 112.004 45.313 112.13 45.3515C112.255 45.39 112.38 45.3838 112.496 45.3337C112.631 45.2828 112.745 45.1838 112.835 45.0402C112.924 44.8986 112.971 44.7233 112.974 44.5198C112.979 44.3177 112.917 44.0964 112.792 43.8613C112.67 43.6235 112.503 43.4035 112.294 43.2056L112.294 43.2056Z" fill="white"/>
<path d="M127.732 38.1891C127.512 38.1321 127.276 38.097 127.032 38.0854C126.788 38.0723 126.564 38.0826 126.364 38.1142L126.337 38.1245C126.281 38.1596 126.247 38.2043 126.236 38.2565C126.225 38.3122 126.24 38.3727 126.283 38.4366L126.297 38.4593L126.323 38.4661C126.6 38.539 126.866 38.6531 127.115 38.8064C127.365 38.9617 127.596 39.1411 127.8 39.337C127.896 39.4333 128.004 39.4814 128.12 39.4814C128.233 39.4814 128.336 39.4463 128.423 39.3762L128.427 39.3735C128.533 39.2759 128.578 39.1288 128.561 38.9377C128.545 38.75 128.448 38.5844 128.277 38.4448C128.143 38.3335 127.959 38.2476 127.732 38.1891V38.1891Z" fill="white"/>
<path d="M120.187 41.7271C120.411 42.0432 120.596 42.4234 120.736 42.8612C120.804 43.0296 120.912 43.1417 121.06 43.1946C121.127 43.218 121.194 43.2296 121.262 43.2296C121.342 43.2296 121.422 43.2131 121.503 43.1815H121.504C121.685 43.1073 121.83 42.9616 121.935 42.7478C122.04 42.532 122.049 42.2708 121.961 41.9711C121.874 41.6707 121.695 41.4232 121.428 41.2342C121.168 41.0507 120.866 40.9091 120.528 40.8129C120.194 40.7187 119.871 40.663 119.567 40.6479L119.557 40.6472L119.548 40.6493C119.483 40.6637 119.437 40.6953 119.411 40.7421C119.381 40.795 119.38 40.8624 119.407 40.9435L119.414 40.9662L119.435 40.9799C119.712 41.1621 119.965 41.4129 120.187 41.7271L120.187 41.7271Z" fill="white"/>
<path d="M127.133 39.3804C126.935 39.2546 126.713 39.1481 126.472 39.0628C126.23 38.979 125.995 38.9281 125.772 38.913L125.756 38.9116L125.74 38.9178C125.619 38.9687 125.567 39.0725 125.597 39.2017L125.604 39.2306L125.629 39.2464C125.885 39.4003 126.12 39.5935 126.329 39.8189C126.537 40.0458 126.714 40.2877 126.856 40.54C126.924 40.652 127.012 40.7263 127.117 40.762C127.161 40.7764 127.204 40.784 127.247 40.784C127.311 40.784 127.373 40.7675 127.433 40.7345L127.434 40.7338C127.556 40.6644 127.64 40.5434 127.682 40.3743C127.724 40.2066 127.687 40.019 127.574 39.8169C127.485 39.656 127.337 39.5096 127.133 39.3804V39.3804Z" fill="white"/>
<path d="M125.201 39.9798C124.833 39.8767 124.498 39.8437 124.187 39.887C124.13 39.9097 124.09 39.955 124.068 40.0196C124.047 40.0822 124.052 40.1482 124.083 40.2087L124.094 40.2314L124.117 40.241C124.315 40.3303 124.435 40.4692 124.482 40.6665C124.532 40.8727 124.501 41.1827 124.394 41.5875C124.007 42.9086 123.414 44.0593 122.628 45.0085C121.843 45.9564 120.886 46.685 119.783 47.1737L119.759 47.184L119.748 47.2067C119.714 47.2755 119.706 47.3394 119.727 47.3964C119.748 47.4556 119.796 47.5037 119.871 47.5387L119.896 47.5504L119.923 47.5415C120.734 47.2789 121.518 46.9325 122.256 46.5111C122.994 46.0891 123.664 45.5419 124.249 44.8862C124.834 44.2291 125.302 43.4145 125.642 42.4639C125.753 42.1443 125.848 41.9133 125.925 41.7766C125.999 41.6411 126.083 41.525 126.173 41.4356C126.3 41.3284 126.369 41.2088 126.379 41.0803C126.39 40.9366 126.327 40.784 126.191 40.6259C125.905 40.3015 125.573 40.0843 125.201 39.9798V39.9798Z" fill="white"/>
<path d="M140.293 40.9792C140.283 40.8995 140.253 40.8411 140.203 40.8047C140.153 40.7696 140.089 40.7586 140.007 40.7723L139.981 40.7778L139.964 40.7998C139.771 41.0597 139.506 41.3477 139.179 41.6577C138.846 41.9711 138.469 42.2962 138.057 42.622C137.642 42.9513 137.201 43.2702 136.745 43.5699C136.286 43.8724 135.825 44.1521 135.376 44.4003C134.928 44.6484 134.501 44.8498 134.108 44.999C133.966 45.0505 133.83 45.0979 133.7 45.1385C133.575 45.1777 133.451 45.201 133.333 45.2086C133.039 45.2086 132.846 45.0931 132.745 44.8574L132.73 44.8347C132.683 44.7886 132.633 44.7652 132.58 44.7652L132.572 44.7659C132.509 44.7687 132.448 44.8044 132.382 44.8855C132.317 45.0065 132.277 45.1557 132.261 45.3433C132.253 45.5372 132.324 45.7592 132.474 46.0025C132.62 46.241 132.886 46.516 133.267 46.8212C133.44 46.9559 133.585 47.0054 133.705 47.0054C133.845 47.0054 133.951 46.9366 134.026 46.859L134.027 46.8569C134.155 46.7146 134.399 46.5455 134.751 46.3544C135.683 45.8506 136.514 45.2849 137.224 44.6738C137.932 44.0621 138.548 43.4338 139.056 42.8056C139.562 42.1808 139.975 41.5807 140.285 41.0225L140.296 41.0019L140.293 40.9792L140.293 40.9792Z" fill="white"/>
<path d="M133.959 42.1058C134.083 42.312 134.236 42.4289 134.414 42.4536C134.45 42.4591 134.485 42.4612 134.518 42.4612C134.655 42.4612 134.784 42.4213 134.903 42.3416H134.904C135.058 42.2357 135.172 42.0776 135.24 41.8714C135.309 41.6638 135.291 41.4335 135.188 41.1875C135.086 40.9345 134.917 40.7304 134.689 40.5798C134.464 40.4334 134.208 40.3207 133.926 40.2444C133.644 40.1688 133.356 40.1186 133.068 40.0959C132.786 40.0733 132.526 40.0623 132.297 40.0623H132.278L132.262 40.0712C132.138 40.1434 132.108 40.2602 132.179 40.3908L132.19 40.4108L132.211 40.4211C132.571 40.5902 132.903 40.828 133.198 41.1277C133.497 41.4308 133.753 41.76 133.959 42.1058V42.1058Z" fill="white"/>
</svg>
